<?xml version="1.0" encoding="UTF-8"?>
<!DOCTYPE svg PUBLIC "-//W3C//DTD SVG 1.1//EN" "http://www.w3.org/Graphics/SVG/1.1/DTD/svg11.dtd">
<!-- Creator: CorelDRAW 2019 (64-Bit) -->
<?xml-stylesheet href="bg-down.css" type="text/css"?>
<svg xmlns="http://www.w3.org/2000/svg" xml:space="preserve" width="176.259mm" height="55.0331mm" version="1.1" style="shape-rendering:geometricPrecision; text-rendering:geometricPrecision; image-rendering:optimizeQuality; fill-rule:evenodd; clip-rule:evenodd"
viewBox="0 0 246104 76841"
 xmlns:xlink="http://www.w3.org/1999/xlink"
 xmlns:xodm="http://www.corel.com/coreldraw/odm/2003">
 <g id="Слой_x0020_1">
  <metadata id="CorelCorpID_0Corel-Layer"/>
  <path class="fil0" d="M163752 20181c-698,-3138 -2020,-5846 -2020,-5846 -4235,-5923 -9565,-7597 -15742,-9731 -6664,-2302 -9629,-4240 -10569,-3799 -2261,1063 -2507,5035 -2613,5499 0,0 -708,-624 -1606,-93 -898,530 -435,1421 423,2971 1522,2748 1824,7823 3734,13389 0,0 3405,238 6363,-872 4184,-1569 5979,-3537 5979,-3537 0,0 4133,3624 8317,4408 4184,784 8368,-523 8368,-523l-634 -1868zm46181 28991c1910,-5566 2014,-8948 3536,-11696 858,-1550 1321,-2441 423,-2971 -898,-530 -1606,93 -1606,93 -106,-464 -352,-4436 -2613,-5499 -940,-441 -3905,1497 -10569,3799 -6177,2134 -11507,3808 -15742,9731 0,0 -1630,3304 -2328,6441 0,0 3121,707 6538,0 5055,-1046 8943,-4503 8943,-4503 0,0 2825,2411 6225,3718 3399,1308 7193,886 7193,886zm-122908 13299l-672 -5043c0,0 3418,969 5042,4034 380,-1584 -2017,-12943 -2017,-12943 -748,-29 -4371,2185 -9077,-1009 0,-840 443,-3128 3278,-3782 3278,-757 3193,-3025 3193,-3025 467,-1421 4054,1223 3867,6303 0,0 14204,2017 20255,5379 3026,1681 4034,9413 4034,9413 0,0 -4499,1480 -8770,172 -4271,-1307 -7409,-3835 -7409,-3835 0,0 -1513,1325 -4707,2789 -4184,1918 -7017,1546 -7017,1546z"/>
  <path class="fil1" d="M86021 76841c-4489,0 -9069,-1485 -12473,-4862 -291,-289 -293,-758 -4,-1049 289,-290 758,-292 1048,-4 5253,5214 16734,6414 23112,83 151,-150 350,-221 547,-215 278,-144 629,-100 863,132 5252,5214 16734,6413 23112,83 151,-150 350,-221 547,-215 278,-144 629,-100 863,132 5253,5214 16734,6413 23112,83 151,-150 350,-221 547,-215 278,-144 629,-100 863,132 5253,5214 16734,6413 23113,83 151,-150 350,-221 547,-215 278,-144 629,-100 863,132 5253,5214 16734,6413 23112,83 151,-150 350,-221 547,-215 278,-144 629,-100 863,132 5253,5214 16734,6413 23113,83 151,-150 350,-221 547,-215 278,-144 629,-100 863,132 5253,5214 16734,6413 23112,83 291,-289 760,-287 1048,4 289,291 287,760 -4,1048 -3031,3009 -7826,4779 -12728,4779 -4324,0 -8731,-1377 -12090,-4495 -3042,2835 -7687,4495 -12432,4495 -4323,0 -8730,-1377 -12090,-4495 -3042,2835 -7687,4495 -12432,4495 -4324,0 -8731,-1377 -12090,-4495 -3042,2835 -7687,4495 -12432,4495 -4323,0 -8730,-1377 -12090,-4495 -3042,2835 -7687,4495 -12432,4495 -4324,0 -8731,-1377 -12090,-4495 -3042,2835 -7687,4495 -12432,4495 -4324,0 -8731,-1377 -12090,-4495 -3042,2835 -7687,4495 -12432,4495zm72621 -59099c-455,0 -947,-48 -1473,-144 -403,-73 -670,-459 -597,-862 73,-402 459,-671 862,-596 1270,231 2245,125 2819,-306 370,-278 601,-705 705,-1303 -1182,-1607 -2455,-2885 -3814,-3939 -151,1341 -786,2170 -1344,2650 -953,820 -2277,1148 -3452,1148 -397,0 -776,-37 -1119,-106 -401,-80 -662,-471 -581,-872 80,-402 472,-662 872,-582 972,194 2422,54 3313,-712 618,-531 906,-1326 857,-2361 -3,-63 2,-124 14,-183 -1061,-683 -2168,-1262 -3319,-1781 44,949 -221,1727 -791,2321 -976,1016 -2563,1152 -3581,1123 53,1452 -339,2633 -1172,3522 -1381,1473 -3556,1644 -4493,1644 -258,0 -422,-13 -450,-15 -408,-35 -710,-394 -675,-802 35,-407 390,-711 800,-675 43,3 2482,179 3740,-1170 674,-723 908,-1803 695,-3211 -36,-234 43,-472 212,-639 169,-167 408,-242 642,-203 633,103 2449,198 3213,-601 375,-392 472,-990 298,-1828 -9,-44 -14,-88 -15,-132 -1412,-563 -2883,-1070 -4410,-1596l-649 -224 -191 -66c482,2813 -1663,6112 -4265,8054 -1641,1226 -3317,1847 -4819,1847 -888,0 -1716,-217 -2440,-655l146 669c442,2033 940,4321 1720,6696 1015,16 3434,-44 5564,-843 1918,-719 3307,-1519 4233,-2156 450,-346 882,-722 1293,-1130 94,-93 207,-156 326,-189 118,-72 252,-109 387,-109 29,0 59,2 88,5 217,-25 442,44 609,210 2787,2766 7327,4403 11929,4384 1311,-104 2419,-324 3102,-486l-379 -1116c-8,-26 -16,-52 -22,-77 -338,-1520 -830,-2944 -1236,-3985 -182,253 -398,474 -648,662 -641,482 -1478,723 -2501,723zm25420 5810c-4262,0 -8606,-1338 -11947,-4363 -3043,2755 -7617,4363 -12289,4363l-202 -1c-245,9 -494,15 -748,15 -959,0 -1974,-74 -2995,-265 -1526,-286 -3030,-919 -4347,-1627 -959,-476 -1878,-1048 -2743,-1721 -434,-311 -793,-589 -1059,-801 -330,286 -823,677 -1493,1117 -2963,2090 -6913,3282 -10935,3282 -4324,0 -8730,-1377 -12090,-4495 -3042,2835 -7687,4495 -12432,4495 -4324,0 -8731,-1377 -12090,-4495 -3042,2836 -7687,4495 -12432,4495 -4490,0 -9070,-1485 -12473,-4862 -291,-289 -293,-758 -4,-1049 289,-290 758,-292 1048,-4 5253,5214 16734,6414 23112,83 151,-150 350,-221 547,-215 278,-144 629,-100 863,132 5253,5214 16734,6414 23112,83 151,-149 350,-221 546,-214 278,-144 629,-101 863,132 2499,2480 6407,4051 10505,4336 -741,-2323 -1221,-4531 -1651,-6506 -532,-2442 -991,-4551 -1752,-5926 -833,-1503 -1694,-3058 -152,-3968 498,-294 975,-358 1389,-302 240,-1473 878,-4189 2893,-5137 822,-387 1923,83 4335,1111 1627,694 3854,1643 6792,2658l647 223c4944,1704 9336,3217 13086,6968 1080,55 4161,289 7146,1231 2134,672 1850,2941 1622,4763 -116,926 -235,1885 -76,2576 17,72 22,144 17,215 1019,-589 1974,-1305 2835,-2160l27 -25c15,-18 31,-36 48,-54 288,-290 758,-292 1048,-4 5253,5214 16734,6414 23113,83 150,-149 349,-221 546,-215 278,-144 629,-100 863,132 5254,5214 16734,6414 23113,83 151,-150 349,-221 546,-215 278,-144 628,-100 863,132 5253,5214 16734,6414 23113,83 290,-288 758,-287 1048,4 289,291 287,760 -4,1049 -3031,3009 -7826,4779 -12728,4779 -4324,0 -8731,-1377 -12091,-4495 -3041,2836 -7686,4495 -12432,4495 -4324,0 -8731,-1377 -12090,-4495 -3042,2835 -7687,4495 -12433,4495zm-19110 -2140c891,-240 1762,-554 2599,-946 -165,-100 -292,-264 -338,-467 -219,-948 -82,-2039 50,-3094 243,-1947 264,-2894 -596,-3165 -1911,-603 -3871,-899 -5255,-1044 313,383 620,784 923,1207l5 8 1 2 1 2 1 2 1 2 1 2 1 2 1 2 1 1 0 0 1 2 1 2 1 2 1 2 1 2 1 2 1 2 1 2 1 2 0 0 1 1 1 2 1 2 1 2 1 2 2 3 1 2 1 2 0 1 1 1 1 2 1 2 1 2 1 2 12 22 1 2 0 0 1 2c4,7 8,14 11,22l3 7 0 1c94,194 1366,2845 2064,5963l487 1432zm-5242 15405c-4299,0 -8680,-1361 -12032,-4442 -3043,2803 -7659,4442 -12374,4442 -4324,0 -8730,-1377 -12090,-4495 -3042,2835 -7687,4495 -12433,4495 -4323,0 -8731,-1377 -12090,-4495 -3042,2836 -7687,4495 -12432,4495 -4324,0 -8731,-1377 -12090,-4495 -3042,2836 -7686,4495 -12432,4495 -4489,0 -9070,-1485 -12473,-4862 -291,-288 -292,-758 -4,-1048 289,-291 759,-292 1049,-4 5253,5214 16734,6413 23112,83 151,-150 350,-221 547,-215 278,-144 629,-100 863,132 5253,5214 16735,6413 23112,83 151,-150 350,-221 547,-215 278,-144 629,-100 863,132 5253,5214 16734,6413 23112,83 151,-150 350,-221 546,-215 278,-144 629,-101 863,132 5253,5214 16734,6413 23113,83 118,-117 265,-186 417,-208 280,-153 639,-111 877,125 5253,5214 16735,6413 23112,83 291,-289 761,-287 1049,4 289,291 287,760 -4,1048 -3031,3009 -7826,4779 -12728,4779zm73397 0c-4490,0 -9070,-1484 -12473,-4862 -291,-288 -293,-758 -4,-1048 289,-291 757,-293 1048,-4 5253,5214 16734,6414 23113,83 290,-289 758,-288 1048,4 289,291 287,760 -4,1048 -3031,3009 -7826,4779 -12728,4779zm-220416 13265c-4490,0 -9070,-1484 -12473,-4862 -291,-288 -293,-758 -4,-1048 289,-290 758,-292 1048,-4 5253,5214 16734,6413 23112,82 151,-150 350,-222 548,-215 278,-143 628,-100 862,133 5254,5213 16735,6412 23113,82 151,-150 350,-222 547,-215 278,-143 629,-100 862,133 5253,5213 16734,6412 23112,82 291,-289 760,-287 1048,4 289,291 287,760 -4,1048 -3031,3009 -7826,4780 -12728,4780 -4323,0 -8731,-1377 -12090,-4495 -3042,2835 -7686,4495 -12432,4495 -4323,0 -8730,-1377 -12090,-4495 -3042,2835 -7687,4495 -12432,4495zm147135 0c-4323,0 -8731,-1377 -12090,-4495 -3042,2835 -7686,4495 -12432,4495 -4489,0 -9069,-1484 -12473,-4862 -291,-288 -293,-758 -4,-1048 289,-290 758,-292 1048,-4 5253,5213 16734,6412 23113,82 151,-150 350,-222 547,-215 278,-143 629,-100 862,133 5253,5213 16734,6412 23112,82l28 -27c15,-18 30,-35 46,-51 288,-290 758,-292 1048,-4 1057,1049 2366,1935 3835,2630 10,-543 -66,-1146 -141,-1734 -213,-1681 -478,-3772 1655,-4444 2986,-942 6068,-1176 7146,-1231 3750,-3750 8140,-5264 13084,-6967l650 -224c2937,-1015 5164,-1964 6791,-2658 2412,-1028 3513,-1496 4334,-1111 2015,948 2653,3664 2893,5136 413,-55 891,8 1389,302 1542,911 681,2466 -152,3969 -788,1424 -1185,3083 -1688,5183 -377,1574 -798,3330 -1474,5432 3436,-358 6779,-1683 9314,-4200 151,-150 350,-222 547,-215 278,-144 628,-100 862,133 5254,5214 16734,6412 23113,82 290,-289 758,-287 1048,4 289,291 287,760 -4,1048 -3031,3009 -7826,4780 -12728,4780 -4323,0 -8730,-1377 -12090,-4495 -3041,2835 -7686,4495 -12432,4495 -4323,0 -8730,-1377 -12090,-4495 -1964,1831 -4596,3171 -7492,3891 -417,121 -844,228 -1280,318 -1198,248 -2358,330 -3371,330 -1018,0 -1888,-83 -2505,-167 -3520,-392 -6969,-1740 -9731,-4241 -3043,2755 -7617,4364 -12289,4364zm18085 -2681c830,304 1697,551 2587,737 747,-2836 2053,-5540 2188,-5818 22,-49 50,-95 83,-138 299,-418 603,-814 912,-1192 -1384,145 -3343,441 -5255,1043 -821,259 -876,904 -629,2844 106,839 216,1702 114,2524zm4056 985c1953,255 3977,219 5936,-151 4573,-1105 8083,-4191 8118,-4223 277,-245 692,-249 974,-10 27,24 2775,2347 6009,3591l107 40c1133,364 2326,626 3544,774 1180,114 2179,90 2732,60 726,-2182 1168,-4002 1556,-5623 -696,392 -1482,588 -2323,588 -1503,0 -3178,-622 -4820,-1848 -2601,-1942 -4747,-5240 -4264,-8053l-192 66 -651 225c-1526,526 -2997,1033 -4408,1596 -1,44 -6,88 -15,132 -174,839 -76,1438 300,1830 766,799 2623,698 3211,600 237,-40 473,36 643,203 169,167 248,405 212,639 -213,1410 22,2492 699,3215 1255,1337 3710,1167 3735,1166 400,-36 766,266 802,675 34,408 -267,766 -675,802 -28,3 -192,15 -450,15 -937,0 -3113,-171 -4494,-1644 -832,-889 -1225,-2071 -1172,-3522 -1014,31 -2604,-106 -3580,-1122 -571,-594 -835,-1372 -792,-2321 -1151,519 -2258,1098 -3319,1781 12,59 17,120 14,183 -50,1035 239,1830 857,2362 891,765 2342,905 3313,711 399,-80 792,179 872,582 80,401 -180,792 -582,872 -342,69 -722,106 -1119,106 -1175,0 -2498,-328 -3451,-1147 -559,-481 -1193,-1309 -1344,-2651 -1359,1054 -2632,2332 -3814,3940 103,597 335,1025 705,1303 573,431 1549,537 2818,306 403,-73 789,194 862,596 73,403 -194,789 -596,862 -528,96 -1019,144 -1474,144 -1022,0 -1860,-241 -2500,-723 -259,-195 -482,-425 -668,-690 -423,1015 -941,2379 -1316,3765zm2095 14961c-4262,0 -8606,-1338 -11947,-4363 -3043,2755 -7617,4363 -12289,4363 -4323,0 -8730,-1377 -12090,-4495 -3042,2835 -7687,4495 -12432,4495 -4323,0 -8730,-1377 -12090,-4495 -3042,2835 -7687,4495 -12433,4495 -3885,0 -7836,-1112 -11035,-3599 -410,-266 -743,-499 -987,-676 -411,305 -1088,772 -2045,1319 -1702,1107 -3695,1933 -5819,2426l-49 12c-630,152 -1196,251 -1690,313 -952,136 -1922,206 -2896,206 -4324,0 -8731,-1377 -12090,-4495 -3042,2836 -7687,4495 -12432,4495 -4323,0 -8730,-1377 -12090,-4495 -3042,2835 -7687,4495 -12432,4495 -4323,0 -8730,-1377 -12090,-4495 -3042,2835 -7687,4495 -12433,4495 -4490,0 -9070,-1484 -12473,-4862 -291,-288 -293,-758 -4,-1048 289,-290 758,-292 1048,-4 5253,5214 16734,6413 23112,82 151,-150 350,-222 548,-215 278,-143 628,-100 862,133 5253,5214 16734,6413 23113,82 151,-150 350,-222 547,-215 278,-143 629,-100 862,133 5253,5214 16734,6413 23112,82 151,-150 351,-222 548,-215 278,-143 628,-100 862,133 2672,2652 6955,4264 11359,4376l-571 -4284c-34,-248 61,-495 249,-659 189,-163 448,-220 687,-153 116,33 2212,646 3982,2386 -121,-931 -303,-2091 -524,-3377 -90,-142 -133,-316 -108,-497 3,-21 6,-41 11,-61 -317,-1796 -703,-3798 -1106,-5745 -1490,458 -4874,1451 -8924,-1297 -203,-137 -325,-367 -325,-613 0,-1342 811,-3803 3852,-4504 2651,-612 2621,-2259 2621,-2277 -3,-87 9,-174 36,-258 213,-651 805,-991 1509,-866 1599,286 3711,2959 3806,6762 2879,440 14437,2351 19871,5369 185,103 363,224 534,361l1216 -1520c257,-320 723,-371 1042,-116 204,163 4715,3830 5545,9237 1034,-593 2002,-1317 2874,-2183 151,-150 351,-221 548,-215 278,-144 628,-100 862,133 5253,5214 16734,6413 23113,82 151,-150 350,-222 547,-215 278,-143 629,-100 862,133 5253,5214 16734,6413 23112,82l28 -27c15,-18 30,-35 46,-51 288,-290 758,-292 1048,-4 5253,5213 16734,6413 23113,82 151,-150 349,-222 546,-215 278,-144 628,-99 862,133 5254,5214 16734,6413 23113,82 151,-150 350,-222 547,-215 278,-144 628,-100 862,133 5253,5214 16734,6413 23113,82 290,-289 758,-287 1048,4 289,291 287,760 -4,1049 -3031,3009 -7826,4779 -12728,4779 -4323,0 -8731,-1377 -12090,-4495 -3041,2836 -7686,4495 -12432,4495 -4323,0 -8730,-1377 -12090,-4495 -3042,2835 -7687,4495 -12433,4495zm-87840 -4387c605,-430 1182,-910 1721,-1445 151,-150 351,-222 548,-215 278,-143 628,-100 862,133 441,437 926,846 1448,1225 1074,677 2626,1543 4445,2221 1456,474 3012,778 4596,889 1840,20 3433,-302 4257,-508 -270,-1631 -896,-4355 -1909,-6272 -246,1488 -814,2556 -1695,3183 -590,420 -1295,631 -2107,631 -488,0 -1015,-76 -1579,-229 -395,-107 -628,-515 -522,-910 107,-395 515,-630 909,-521 1052,286 1872,225 2439,-178 681,-486 1080,-1509 1186,-3043 14,-199 103,-374 239,-498 -168,-156 -344,-287 -526,-389 -983,-546 -2194,-1057 -3531,-1529 -135,1333 -761,2154 -1311,2627 -924,794 -2207,1113 -3346,1113 -384,0 -752,-36 -1084,-102 -401,-80 -662,-471 -581,-872 80,-401 469,-662 872,-581 930,187 2320,53 3171,-680 536,-460 811,-1129 822,-1989 -1759,-555 -3654,-1048 -5488,-1472 2,839 -257,1533 -775,2072 -914,952 -2375,1112 -3368,1093 57,857 -166,1577 -666,2151 -932,1067 -2566,1265 -3651,1265l-11 0c318,1911 563,3701 580,4761 495,-175 1018,-385 1565,-636 996,-457 1825,-900 2489,-1290zm19382 2326c884,-221 1750,-513 2584,-880 -418,-4015 -3287,-7129 -4513,-8292l-857 1070 -5 6c1803,2463 2573,6666 2791,8096zm-28347 -2690l422 3161c567,-3 1542,-67 2816,-372 -915,-1442 -2282,-2317 -3237,-2789zm11300 -9387c-4324,-936 -7951,-1459 -8022,-1469 -375,-53 -650,-382 -636,-761 117,-3167 -1299,-4881 -1735,-5332 -292,-301 -530,-453 -686,-526 -138,846 -780,2649 -3731,3329 -2078,480 -2560,1959 -2671,2680 3347,2091 6037,1261 7354,856 427,-133 711,-218 978,-209 340,13 627,256 697,588 192,911 742,3559 1227,6272 881,29 2220,-82 2803,-754 343,-394 399,-980 173,-1793 -68,-244 -6,-506 163,-695 170,-188 423,-277 673,-235 606,99 2345,190 3075,-572 299,-313 411,-767 340,-1381zm112844 -8226c374,-1450 772,-2698 1419,-3868 851,-1537 920,-1840 695,-1973 -387,-228 -673,-41 -752,22 -199,159 -472,211 -714,127 -240,-84 -429,-279 -486,-527 -16,-70 -36,-204 -62,-390 -131,-951 -529,-3846 -2145,-4605 -306,-61 -1680,518 -3122,1133l-265 113c541,548 611,1424 132,2054 -526,690 -1511,824 -2201,299 -402,-306 -615,-768 -619,-1236 -616,246 -1281,504 -1996,771 -11,39 -26,78 -44,116 -1061,2215 921,5491 3449,7379 1831,1367 4387,2285 6072,763 180,-163 418,-221 640,-177zm-67591 -36374c-716,-266 -1380,-525 -1997,-771 -4,469 -218,930 -619,1237 -690,526 -1676,392 -2201,-299 -479,-630 -410,-1506 131,-2054l-265 -113c-1442,-615 -2803,-1199 -3149,-1124 -1589,750 -1987,3645 -2118,4596 -25,184 -45,319 -62,388 -59,254 -247,459 -495,539 -249,80 -521,23 -717,-149 -66,-52 -353,-240 -739,-11 -226,133 -157,437 695,1974 576,1040 981,2363 1351,3884 239,-71 509,-19 707,161 1685,1522 4242,603 6072,-763 2529,-1888 4510,-5164 3449,-7379 -18,-38 -33,-77 -44,-116z"/>
 </g>
</svg>
