<svg xmlns="http://www.w3.org/2000/svg" width="68.7307mm" height="41.3974mm" viewBox="0 0 1726 1040">
    <path fill="#9D9E9E" fill-rule="nonzero" d="M1061 248c-8,-36 -31,-84 -31,-84 -49,-69 -111,-88 -183,-113 -77,-27 -112,-49 -123,-44 -26,12 -29,58 -30,64 0,0 -8,-7 -19,-1 -10,6 -5,16 5,34 18,32 28,88 50,153 0,0 30,3 73,-15 42,-18 59,-36 59,-36 0,0 44,42 98,52 55,9 100,-9 100,-9zm194 317c8,-36 24,-74 24,-74 49,-69 111,-88 183,-113 77,-27 112,-49 123,-44 26,12 29,58 30,64 0,0 8,-7 19,-1 10,6 5,16 -5,34 -18,32 -18,69 -41,133 0,0 -49,6 -97,-11 -34,-12 -64,-38 -64,-38 0,0 -32,26 -74,39 -42,14 -97,9 -97,9zm-531 464l-8 -58c0,0 40,11 58,47 4,-18 -23,-150 -23,-150 -9,0 -51,25 -105,-12 0,-10 5,-36 38,-44 38,-9 37,-35 37,-35 5,-16 47,14 45,73 0,0 165,23 235,62 35,19 47,109 47,109 0,0 -52,17 -102,2 -50,-15 -86,-44 -86,-44 0,0 -18,15 -55,32 -49,22 -81,18 -81,18zm-233 -320c-8,-36 -31,-84 -31,-84 -49,-69 -111,-88 -183,-113 -77,-27 -112,-49 -123,-44 -26,12 -29,58 -30,64 0,0 -8,-7 -19,-1 -10,6 -5,16 5,34 18,32 28,88 50,153 0,0 30,3 73,-15 42,-18 59,-36 59,-36 0,0 44,42 98,52 55,9 100,-9 100,-9z"/>
  <path fill="none" fill-rule="nonzero" stroke="#2B2A29" stroke-width="18" stroke-linecap="round" stroke-linejoin="round" stroke-miterlimit="10" d="M1304 453c-22,1 -54,5 -82,14 -28,9 -6,53 -12,79m508 -496c-65,65 -203,75 -280,-1m280 930c-65,65 -203,75 -280,-1m-11 -1c-65,65 -203,75 -280,-1m-4 1c-65,65 -203,75 -280,-1m-4 1c-65,65 -203,75 -280,-1m-4 1c-65,65 -203,75 -280,-1m-4 1c-65,65 -203,75 -280,-1m1417 -153c-65,65 -203,75 -280,-1m-573 1c-65,65 -203,75 -280,-1m-4 1c-65,65 -203,75 -280,-1m1417 -153c-65,65 -203,75 -280,-1m-4 1c-65,65 -203,75 -280,-1m-4 1c-65,65 -203,75 -280,-1m-4 1c-65,65 -203,75 -280,-1m-4 1c-65,65 -203,75 -280,-1m1417 -153c-65,65 -203,75 -280,-1m-4 1c-65,65 -203,75 -280,-1m-4 1c-65,65 -203,75 -280,-1m563 -153c-65,65 -203,75 -280,-1m-3 1c-65,65 -203,75 -280,-1m-4 1c-65,65 -203,75 -280,-1m-4 1c-65,65 -203,75 -280,-1m1417 -153c-65,65 -203,75 -280,-1m-4 1c-65,65 -203,75 -280,-1m-4 1c-65,65 -203,75 -280,-1m-4 1c-65,65 -203,75 -280,-1m-4 1c-65,65 -203,75 -280,-1m1417 -157c-65,65 -203,75 -280,-1m-573 1c-65,65 -203,75 -280,-1m-4 1c-65,65 -203,75 -280,-1m1708 774c-65,65 -203,75 -280,-1m280 -153c-65,65 -203,75 -280,-1m280 -153c-65,65 -203,75 -280,-1m280 -307c-65,65 -203,75 -280,-1m-482 770c23,6 50,3 53,-45m8 -14l16 -19c0,0 58,47 62,113m-229 -140c10,47 -49,37 -49,37 14,49 -51,40 -51,40m125 -11c19,4 58,-2 57,-43m-510 -297c22,1 54,5 82,14 28,9 6,53 12,79m-271 -179c26,54 -75,149 -124,104m203 2c20,4 61,-2 59,-44m10 83c22,4 48,4 51,-28m-229 13c0,0 71,6 61,-61 0,0 61,10 51,-38m662 -405c22,1 54,5 82,14 28,9 6,53 12,79m-271 -179c26,54 -75,149 -124,104m203 2c20,4 61,-2 59,-44m10 83c22,4 48,4 51,-28m-229 13c0,0 71,6 61,-61 0,0 61,10 51,-38m573 287c-26,54 75,146 124,102m-203 2c-20,4 -61,-2 -59,-44m-10 83c-22,4 -48,4 -51,-28m229 13c0,0 -71,6 -61,-61 0,0 -61,10 -51,-38m64 -26c-115,40 -186,68 -213,193 50,13 130,-7 181,-56 25,27 104,63 153,57 22,-65 29,-111 46,-143 10,-18 13,-26 2,-32 -10,-6 -19,1 -19,1 -1,-5 -4,-51 -30,-64 -10,-5 -104,39 -120,44zm-740 657l-8 -58c0,0 40,11 58,47 4,-18 -23,-150 -23,-150 -9,0 -51,25 -105,-12 0,-10 5,-36 38,-44 38,-9 37,-35 37,-35 5,-16 47,14 45,73 0,0 165,23 235,62 35,19 47,109 47,109 -64,21 -136,-1 -188,-42 -29,25 -98,55 -136,50zm-447 -517c115,40 186,71 214,197 -67,27 -147,7 -198,-42 -25,27 -96,55 -132,52 -22,-65 -32,-121 -50,-153 -10,-18 -15,-28 -5,-34 10,-6 19,1 19,1 1,-5 4,-51 30,-64 10,-5 107,39 123,44zm-82 1c-5,-6 -4,-16 3,-20 6,-5 16,-4 20,3 5,6 4,16 -3,20 -6,5 -16,4 -20,-3zm649 -461c115,40 186,71 214,197 -67,27 -147,7 -198,-42 -25,27 -96,55 -132,52 -22,-65 -32,-121 -50,-153 -10,-18 -15,-28 -5,-34 10,-6 19,1 19,1 1,-5 4,-51 30,-64 10,-5 107,39 123,44zm-82 1c-5,-6 -4,-16 3,-20 6,-5 16,-4 20,3 5,6 4,16 -3,20 -6,5 -16,4 -20,-3zm784 319c5,-6 4,-16 -3,-20 -6,-5 -16,-4 -20,3 -5,6 -4,16 3,20 6,5 16,4 20,-3z"/>
</svg>
