<svg width="145" height="58" viewBox="0 0 149552 58240" xmlns="http://www.w3.org/2000/svg">
  <path fill="var(--bg-footer-fi1)" d="M7825 17504c-2768,0 -5592,-915 -7690,-2998 -179,-178 -180,-467 -2,-646 178,-179 467,-180 646,-2 3239,3214 10317,3954 14250,51 93,-93 216,-137 338,-133 171,-89 387,-62 531,82 3239,3214 10317,3954 14250,51 93,-93 216,-137 338,-133 172,-89 387,-62 532,82 3239,3214 10317,3954 14250,51 93,-93 216,-137 338,-133 171,-89 387,-62 532,82 3239,3214 10317,3954 14250,51 93,-93 216,-136 337,-132 172,-89 388,-62 532,82 3239,3214 10317,3954 14250,51 93,-93 216,-137 338,-133 172,-89 387,-62 532,82 3239,3214 10317,3954 14250,51 179,-178 469,-177 647,2 178,179 177,468 -2,646 -1869,1855 -4825,2947 -7847,2947 -2666,0 -5383,-849 -7454,-2771 -1876,1748 -4739,2771 -7665,2771 -2666,0 -5383,-849 -7454,-2771 -1876,1748 -4739,2771 -7665,2771 -2665,0 -5383,-849 -7454,-2771 -1876,1748 -4739,2771 -7665,2771 -2666,0 -5383,-849 -7454,-2771 -1876,1748 -4739,2771 -7665,2771 -2666,0 -5382,-849 -7454,-2771 -1876,1748 -4739,2771 -7665,2771zm75596 16284c-2666,0 -5383,-849 -7454,-2771 -1875,1748 -4739,2771 -7665,2771 -2768,0 -5592,-915 -7690,-2998 -179,-178 -180,-467 -2,-646 178,-179 467,-180 646,-2 3239,3214 10317,3954 14250,51 93,-93 216,-137 338,-133 171,-89 387,-61 532,82 3239,3214 10317,3954 14250,51 179,-178 469,-177 647,2 178,179 177,468 -2,646 -1869,1855 -4825,2947 -7847,2947zm0 -8112c-2666,0 -5383,-849 -7454,-2771 -1875,1748 -4739,2771 -7665,2771 -2666,0 -5383,-849 -7454,-2771 -1876,1748 -4739,2771 -7665,2771 -2665,0 -5383,-849 -7454,-2771 -1876,1748 -4739,2771 -7665,2771 -2768,0 -5592,-915 -7690,-2998 -179,-178 -180,-467 -2,-646 178,-179 467,-180 646,-2 3239,3215 10317,3954 14250,51 93,-92 216,-136 338,-132 171,-89 387,-62 532,82 3239,3215 10317,3954 14250,51 93,-92 216,-136 337,-132 172,-89 388,-62 532,81 3239,3215 10317,3954 14250,51 93,-92 216,-136 338,-132 172,-89 388,-62 532,82 3239,3215 10317,3954 14250,51 179,-178 469,-177 647,2 178,179 177,468 -2,646 -1869,1855 -4825,2947 -7847,2947zm-45179 -16081c-2665,0 -5382,-849 -7454,-2771 -1876,1748 -4739,2771 -7665,2771 -2666,0 -5383,-849 -7454,-2771 -1875,1748 -4739,2771 -7665,2771 -2768,0 -5592,-915 -7690,-2998 -179,-178 -180,-467 -2,-646 178,-179 467,-180 646,-2 3239,3214 10317,3954 14250,51 93,-93 216,-137 338,-133 171,-89 387,-62 532,82 3239,3214 10317,3954 14250,51 93,-93 216,-137 338,-133 171,-89 388,-62 532,82 3239,3214 10317,3954 14250,51 64,-63 141,-104 223,-122 21,-40 48,-78 82,-112 178,-179 467,-180 646,-2 3204,3180 10165,3937 14121,174 -76,-168 -46,-372 92,-511 177,-179 467,-180 646,-2 3239,3214 10317,3953 14250,51 93,-93 216,-137 337,-133 172,-89 388,-62 532,82 3239,3214 10317,3953 14250,51 179,-178 469,-177 647,2 178,179 177,468 -2,646 -1869,1855 -4825,2947 -7847,2947 -2665,0 -5383,-849 -7454,-2772 -1875,1748 -4739,2772 -7665,2772 -2531,0 -5108,-765 -7135,-2488 -1874,1782 -4768,2827 -7724,2827 -2641,0 -5333,-833 -7397,-2718 -1871,1829 -4805,2904 -7804,2904z"/>
  <path fill="var(--bg-footer-fi2)" d="M116562 41462l1005 -835c-490,-1458 -1285,-3828 -2181,-6253l737 1636c0,0 1115,-710 990,-1029 -125,-318 -502,-1286 -694,-3891 -171,-2323 718,-3556 -618,-3928 -1334,-372 -2857,-517 -3897,-528 -55,-79 -109,-154 -163,-224 -2422,-3159 -5365,-3975 -8778,-5028 -3683,-1136 -5338,-2141 -5843,-1882 -1216,622 -1278,2797 -1327,3052 0,0 -399,-328 -879,-21 -481,306 -212,784 286,1615 1618,2704 2091,10357 7254,14271l335 239c616,1462 1361,2750 1970,2436 248,-128 479,-318 685,-548l235 167c2628,1928 4977,3572 6405,4558 1301,-1458 3555,-3176 4479,-3809zm22819 -22460c-763,1391 -1637,2596 -2210,2222 -234,-153 -443,-366 -625,-616l-251 142c-2812,1647 -3996,1709 -5518,2543 -1145,-1584 -3107,-3387 -3961,-4112l-1504 -1655c428,-939 965,-2114 1564,-3364l-486 836c0,0 -1036,-821 -879,-1125 157,-304 632,-1228 1090,-3799 409,-2293 -348,-3610 1019,-3843 1364,-232 2893,-220 3929,-124 63,-72 125,-140 187,-206 2734,-2892 5745,-3402 9249,-4098 3780,-751 5530,-1580 6006,-1271 1145,744 983,2913 1006,3172 0,0 430,-285 877,69 447,354 130,802 -451,1577 -1888,2524 -3146,10086 -8684,13449l-358 202zm-15971 30518c731,193 2080,725 2774,1317 1199,1024 1377,1243 1377,1243 0,0 -311,2073 -3145,2838 -1736,468 -2947,2858 -2947,2858 0,0 -1930,-2695 -2194,-5028l4135 -3228z"/>
  <path fill="var(--bg-footer-fi1)" d="M97571 27361c-259,-26 -503,-88 -733,-184l158 531c496,1669 1051,3534 1881,5310 63,-22 131,-31 202,-24 613,62 1201,-170 1657,-651 409,-433 679,-1033 741,-1645 20,-194 161,-355 352,-402l10 -3 10 -4c79,-37 161,-52 243,-44 1337,135 2608,-1077 2769,-2171l1 -10 -1 -11c-1,-26 -2,-46 0,-68 26,-255 255,-441 509,-415 633,64 1280,-156 1822,-620 502,-435 836,-1030 893,-1594 26,-255 254,-441 509,-415 255,26 441,254 416,509 -82,806 -523,1609 -1209,2203 -28,24 -57,48 -85,71 -571,466 -1235,735 -1922,779l-75 5 -21 72c-194,663 -642,1317 -1228,1795 -614,501 -1322,779 -2049,805l-82 3 -19 80c-189,793 -638,1527 -1234,2012 -516,421 -1115,644 -1751,656 629,1172 1401,2282 2382,3240 -242,-703 -432,-1339 -547,-1769 -66,-247 82,-503 329,-569 55,-15 111,-19 167,-13 191,19 352,157 402,342 601,2248 1796,5134 2435,5484l54 29 52 -30c957,-552 1583,-2251 1302,-3030 -236,-656 -1840,-2066 -2795,-2801 -203,-156 -241,-449 -85,-652 99,-128 255,-195 417,-178 22,2 44,6 66,11 22,-1 44,0 67,2 1315,133 1984,-366 2107,-1570 5,-44 17,-87 39,-137l8 -17 2 -24 0 -17c26,-252 254,-439 509,-412 1379,140 2611,-955 2790,-2028l4 -25 -7 -24c-18,-59 -24,-120 -18,-182 26,-255 254,-441 509,-415 381,38 1135,-65 1651,-503 374,-316 583,-762 620,-1326 -81,-132 -161,-256 -239,-371 -26,-29 -48,-60 -66,-94 -39,-55 -77,-107 -115,-157 -2247,-2929 -4999,-3776 -8187,-4756l-359 -110 -14 -4c247,1513 -832,3308 -2173,4401l-47 39c-1005,803 -2078,1194 -3021,1098zm-1113 -1404c24,-1 49,-1 74,2 93,9 180,46 252,107 250,211 546,336 879,369 691,70 1547,-257 2348,-898 1304,-1031 2338,-2861 1733,-4021 -7,-14 -14,-28 -20,-43 -379,-127 -731,-251 -1059,-369 -11,235 -118,464 -315,624 -368,300 -909,245 -1208,-123 -260,-319 -253,-768 -7,-1077l-123 -48c-702,-272 -1360,-526 -1631,-554 -14,-2 -27,-2 -39,-3l-30 -1 -27 15c-539,314 -870,1127 -1011,2485 -14,134 -23,193 -27,219 -31,159 -146,293 -299,348 -65,23 -135,32 -204,25 -91,-9 -177,-45 -249,-104 -43,-30 -82,-44 -124,-48 -60,-6 -122,9 -184,45l-72 41 21 80c53,198 295,604 455,872 323,540 597,1242 865,2056zm24965 32281c-133,-13 -254,-83 -331,-192 -78,-110 -1852,-2609 -2237,-4951 -405,199 -834,321 -1262,278 -154,-16 -306,-53 -451,-111 -401,-160 -755,-611 -881,-1124l-26 -107 -107 30c-229,63 -454,83 -668,61 -381,-39 -726,-216 -971,-499 -286,-330 -424,-793 -377,-1270l13 -134 -134 17c-141,18 -280,21 -413,7 -384,-39 -725,-215 -960,-494 -295,-351 -407,-854 -307,-1379l25 -131 -133 3c-70,2 -139,-1 -206,-8 -124,-13 -243,-39 -354,-79 -485,-175 -830,-607 -923,-1154 -99,-579 87,-1212 497,-1766 -1433,-996 -3486,-2442 -5726,-4084 -26,22 -51,44 -77,66 -143,116 -291,215 -441,292 -153,79 -324,111 -495,94 -101,-10 -202,-38 -301,-81 -628,-278 -1267,-1398 -1804,-2643 -72,-13 -141,-43 -200,-87 -3679,-2790 -5058,-7427 -6065,-10812 -447,-1502 -833,-2798 -1307,-3590l-8 -12c-469,-786 -1002,-1676 -129,-2234 204,-130 421,-199 642,-205l91 -2 13 -90c207,-1424 711,-2351 1498,-2756 157,-80 331,-107 549,-85 421,43 1003,268 1884,609 901,349 2131,826 3759,1328l359 111c3341,1027 6225,1914 8652,5079l35 46c300,9 744,30 1276,85 911,92 1754,246 2506,456 1240,346 1136,1320 1027,2352 -60,566 -128,1206 -70,1989 187,2542 546,3456 664,3756 61,157 205,524 -606,1185 -111,90 -236,183 -374,278 73,206 145,410 215,611 262,-27 540,-26 828,3 1330,135 2823,853 4216,1937l-13 -17 21888 -16064 574 782 -21700 15926c426,382 837,796 1224,1237 431,490 403,862 171,972 -199,95 -550,-4 -890,-386 -1795,-2016 -4012,-3302 -5585,-3462 -137,-14 -269,-19 -396,-17 248,720 473,1385 668,1962l185 -151c96,-79 217,-115 341,-102 123,12 235,72 313,169 78,96 115,217 102,340 -13,124 -72,235 -169,313l-6148 5014c-656,535 -817,1143 -755,1501 36,219 151,374 322,436 40,15 85,25 132,30 195,20 616,-28 1244,-569 103,-74 240,-112 366,-100 115,12 214,63 289,150 166,194 145,487 -49,655 -731,632 -887,1377 -611,1705 77,91 194,148 339,162 362,37 865,-183 1379,-602 96,-79 217,-115 341,-102 121,12 231,70 308,163 162,193 140,484 -51,650 -721,627 -700,1309 -453,1593 89,103 214,166 360,181 312,31 713,-144 1130,-495l13 -10c103,-84 224,-120 347,-108 119,12 228,69 306,160 166,194 144,487 -50,654l-11 9c-119,105 -164,249 -138,432 38,272 221,510 335,561 65,26 130,42 199,48 423,43 1008,-245 1786,-880l3689 -3008c67,-54 145,-88 228,-100l22622 -13659 501 831 -22501 13586c771,259 1845,726 2480,1268 1172,1000 1402,1260 1436,1302 83,101 119,233 100,363 -19,123 -223,1236 -1388,2186 -566,462 -1272,809 -2097,1032 -1262,340 -2343,2006 -2653,2620 -73,144 -218,241 -379,253 -27,2 -54,2 -82,-1zm-1722 -5675c18,41 30,86 36,133 169,1494 1090,3185 1624,4059l87 143 94 -138c589,-865 1544,-1965 2753,-2291 1936,-522 2552,-1700 2728,-2181l24 -67 -52 -48c-178,-166 -515,-471 -1113,-981 -622,-530 -1913,-1043 -2591,-1221 -91,-24 -168,-73 -226,-138l-3011 2456c-112,92 -230,185 -353,277zm-2705 -12176c-716,-2129 -1933,-5724 -3175,-8784 -177,414 -460,793 -826,1095l-10 8c-514,419 -1150,638 -1791,615l-90 -3 -19 88c-139,626 -545,1506 -1267,2096l0 0c-549,447 -1196,648 -1871,579 -98,-10 -198,-26 -297,-47 -122,-26 -226,-97 -293,-202 -68,-104 -91,-228 -65,-350 50,-233 265,-390 501,-366 17,2 34,4 51,8 68,14 135,25 200,32 430,44 814,-75 1174,-364l17 -7 10 -16c649,-539 970,-1441 967,-1798 -1,-162 82,-311 222,-397l19 -12 13 -18c97,-138 260,-212 425,-196 17,2 35,4 52,8 62,13 124,23 184,29 604,61 1056,-225 1272,-401 438,-358 708,-893 705,-1397 -1,-135 56,-257 148,-343 -275,-634 -548,-1226 -813,-1754 -159,332 -383,622 -666,860l-36 30c-627,511 -1355,649 -1733,685l-76 8 -18 75c-161,667 -572,1297 -1157,1774 -604,492 -1344,787 -2087,831l-84 5 -15 83c-124,673 -410,1196 -850,1555 -292,238 -644,400 -1051,483 822,708 1863,1707 2120,2421 313,870 -3,2176 -678,3150 2274,1666 4359,3132 5770,4111l5119 -4175zm-756 -5027c139,-107 262,-212 343,-296l47 -48 -23 -63c-308,-861 -527,-2150 -650,-3829 -64,-867 12,-1582 73,-2156 118,-1109 85,-1236 -352,-1358 -871,-243 -1771,-367 -2373,-428 -182,-18 -363,-34 -541,-46 1115,1951 2401,5240 3476,8225zm-7502 5462c-88,-9 -176,-22 -262,-39 -251,-50 -416,-295 -366,-546 47,-237 263,-397 503,-373 14,1 29,4 43,7 59,11 118,20 177,26 514,52 1021,-102 1429,-435 415,-338 665,-821 668,-1291 0,-32 5,-67 16,-108l26 -105 -106 -26c-239,-58 -392,-292 -348,-532 43,-237 264,-404 505,-380 12,1 23,3 35,5 50,9 100,16 150,21 538,55 1073,-110 1508,-465 433,-353 698,-851 709,-1333 7,-256 220,-459 475,-453 13,0 25,1 38,2 239,24 422,232 416,473 -18,761 -401,1500 -1051,2031 -399,325 -873,545 -1373,636l-112 20 26 111c10,42 14,76 14,110 -6,755 -374,1485 -1010,2003 -600,490 -1349,717 -2110,640l0 0zm3509 831c-87,-9 -176,-22 -262,-39 -252,-50 -416,-294 -366,-546 46,-237 262,-397 502,-373 14,2 29,4 43,6 58,12 117,20 176,27 515,52 1023,-102 1430,-435 415,-338 664,-820 668,-1291 1,-124 51,-241 139,-328 88,-87 205,-134 329,-133 15,0 30,1 44,2 239,24 419,224 417,466 -6,755 -375,1485 -1010,2003l-14 11c-598,482 -1342,705 -2097,629z"/>
  <path fill="var(--bg-footer-fi1)" d="M120651 17651c1698,-1454 3689,-2294 5036,-2292 55,0 110,1 163,4 -318,673 -618,1317 -892,1911l-9 9c-88,88 -137,204 -137,328 0,124 48,241 136,329l5599 5620c597,599 695,1221 598,1571 -59,214 -189,356 -366,400 -42,11 -87,16 -135,15 -196,0 -610,-91 -1179,-693 -95,-85 -227,-137 -354,-137 -115,0 -220,41 -302,119 -186,175 -194,470 -19,657 662,703 740,1461 432,1759 -86,83 -208,127 -354,127 -364,-1 -841,-270 -1310,-741 -88,-88 -204,-137 -329,-137 -121,0 -236,46 -323,130 -182,175 -189,467 -17,651 653,698 561,1374 288,1631 -99,93 -229,143 -377,142 -314,-1 -694,-216 -1073,-608l-11 -12c-94,-94 -210,-143 -334,-143 -120,0 -234,45 -321,128 -185,176 -193,470 -18,656l10 10c107,117 138,265 93,444 -66,267 -272,485 -391,523 -67,19 -134,28 -203,28 -347,-1 -778,-231 -1311,-703 -6,-24 -21,-45 -51,-53l-208 -188c-38,-37 -77,-75 -116,-114l-33 -20 -27366 -24717c-206,-207 -555,-166 -720,93 -130,203 -73,476 107,637l27566 24899c34,30 71,55 110,74 570,526 1268,1023 2016,1024 155,0 310,-21 460,-64 415,-117 814,-530 992,-1027l37 -104 103 40c222,86 443,130 659,130 383,1 745,-140 1017,-396 318,-299 503,-745 506,-1224l1 -135 132 31c139,32 277,49 410,49 386,1 744,-139 1006,-393 329,-319 492,-808 447,-1340l-11 -133 132 17c69,9 139,13 207,14 124,0 245,-14 359,-43 500,-125 888,-518 1037,-1053 172,-617 14,-1332 -414,-1966 1390,-616 3054,-1367 4828,-2195 18,19 36,38 55,56 130,131 268,244 409,336 144,94 311,144 482,144 102,0 205,-17 307,-50 653,-212 1405,-1260 2066,-2444 73,-5 144,-28 208,-66 3946,-2397 5796,-6867 7146,-10131 599,-1448 1116,-2698 1669,-3437l9 -11c548,-733 1169,-1564 358,-2209 -190,-150 -398,-241 -618,-270l-90 -12 -4 -91c-60,-1438 -466,-2411 -1207,-2894 -148,-96 -319,-141 -538,-141 -423,-1 -1025,163 -1936,412 -932,255 -2204,602 -3875,934l-368 73c-3429,678 -6389,1264 -9128,4162l-39 42c-299,-22 -744,-46 -1278,-47 -915,-2 -1769,64 -2539,196 -1269,216 -1266,1196 -1263,2233 2,569 3,1213 -135,1986 -448,2509 -898,3382 -1046,3668 -67,130 -212,411 234,967 -1123,81 -2396,560 -3609,1304 -15,-31 -33,-61 -55,-89l-10527 -13432c-162,-206 -461,-242 -667,-81 -207,161 -244,459 -82,666l10527 13432c7,9 15,18 23,27 -290,210 -573,435 -847,672 -409,354 -418,652 -230,759 161,92 466,42 788,-233zm5208 -111c913,-1977 2102,-4486 3273,-6690 133,430 375,837 709,1174l9 9c468,470 1078,753 1718,796l90 6 10 89c74,638 387,1554 1044,2215l0 0c499,502 1122,767 1801,768l0 0c98,0 199,-5 300,-16 123,-13 234,-74 312,-170 78,-97 114,-218 100,-341 -25,-236 -223,-415 -460,-415 -17,0 -34,1 -51,3 -69,7 -137,11 -202,11 -432,-1 -802,-159 -1130,-482l-16 -9 -9 -17c-590,-603 -816,-1533 -777,-1888 18,-161 -50,-317 -180,-418l-18 -14 -10 -19c-82,-147 -237,-238 -403,-238 -17,0 -35,1 -52,3 -63,7 -125,10 -187,10 -607,-1 -1027,-332 -1223,-530 -400,-401 -613,-961 -557,-1462 15,-134 -30,-262 -113,-356 339,-602 671,-1163 990,-1661 125,346 317,658 574,924l33 33c571,573 1281,785 1654,860l75 15 10 76c91,680 435,1349 968,1884 549,552 1256,922 1990,1041l84 14 6 84c54,683 285,1232 686,1634 266,267 599,464 995,589 -890,619 -2029,1506 -2358,2190 -402,835 -221,2172 355,3211 -1820,848 -3522,1613 -4917,2230l-5124 -5143zm19874 -9237c260,0 509,-36 747,-108l-212 511c-666,1609 -1409,3407 -2418,5088 -60,-29 -128,-45 -198,-45 -616,-2 -1177,-292 -1581,-818 -362,-473 -569,-1097 -568,-1713 0,-194 -124,-369 -308,-436l-10 -4 -9 -5c-75,-45 -155,-68 -238,-68 -1343,-3 -2483,-1339 -2531,-2444l-1 -10 1 -10c4,-26 8,-46 8,-67 1,-256 -208,-465 -464,-465 -636,-1 -1257,-287 -1749,-805 -455,-484 -725,-1111 -724,-1677 0,-256 -208,-465 -464,-466 -256,-1 -465,208 -465,464 -2,811 354,1655 976,2316 26,27 51,54 77,80 520,522 1153,858 1831,973l74 13 14 74c125,679 503,1376 1037,1912 559,561 1235,911 1955,1012l81 12 11 81c106,808 478,1584 1020,2129 470,472 1044,756 1675,833 -747,1101 -1628,2125 -2702,2977 313,-674 568,-1286 726,-1703 91,-239 -30,-508 -269,-600 -53,-20 -108,-30 -165,-30 -192,0 -366,120 -435,299 -829,2174 -2314,4921 -2986,5205l-56 23 -49 -35c-895,-648 -1343,-2402 -983,-3148 302,-628 2042,-1866 3068,-2498 218,-134 286,-421 151,-640 -86,-137 -234,-220 -396,-220 -22,0 -45,2 -67,5 -22,-3 -44,-5 -67,-5 -1321,-3 -1936,-568 -1934,-1779 0,-44 -8,-88 -24,-141l-5 -17 1 -24 2 -17c1,-254 -207,-462 -464,-463 -1386,-2 -2499,-1219 -2567,-2304l-2 -25 10 -24c24,-57 37,-117 37,-179 0,-256 -208,-465 -464,-465 -383,-2 -1123,-181 -1590,-671 -340,-352 -501,-817 -481,-1382 95,-125 188,-241 279,-347 26,-24 49,-51 69,-80 45,-52 90,-101 134,-148 2536,-2682 5361,-3241 8633,-3888l369 -73 14 -3c-401,1480 487,3376 1709,4602l43 43c917,903 1944,1401 2893,1403zm1251 -1282c-24,-4 -49,-6 -74,-6 -93,0 -184,28 -261,80 -271,185 -578,278 -913,277 -695,-1 -1513,-415 -2244,-1135 -1191,-1159 -2031,-3086 -1311,-4177 9,-13 17,-27 24,-41 390,-87 753,-174 1092,-258 -13,235 70,473 249,653 335,336 879,337 1214,2 291,-290 331,-738 118,-1071l127 -35c726,-198 1407,-384 1680,-383 14,0 27,0 38,1l31 2 24 18c505,368 750,1211 750,2576 0,135 3,194 5,220 15,161 115,306 261,377 62,30 131,45 200,46 92,0 181,-26 258,-77 46,-25 87,-36 128,-36 60,0 121,22 179,63l67 48 -30 77c-72,192 -355,570 -542,821 -377,504 -722,1174 -1072,1956zm-20644 7318c-127,-120 -238,-238 -310,-329l-42 -53 29 -60c395,-825 745,-2084 1040,-3742 153,-856 151,-1575 150,-2152 -3,-1115 42,-1238 490,-1314 891,-152 1799,-183 2404,-182 182,0 364,3 543,9 -1310,1826 -2928,4965 -4305,7823zm6900 6206c88,0 177,-4 265,-12 255,-23 444,-250 420,-505 -22,-240 -220,-422 -462,-422 -14,0 -29,1 -43,2 -60,5 -119,8 -179,8 -516,-1 -1006,-207 -1377,-579 -378,-379 -576,-885 -531,-1353 3,-32 2,-67 -4,-109l-15 -107 107 -15c244,-33 420,-249 401,-493 -18,-240 -221,-429 -463,-430 -12,0 -24,1 -36,2 -51,4 -101,6 -152,6 -541,-1 -1056,-221 -1452,-618 -394,-396 -607,-919 -569,-1398 20,-255 -171,-480 -426,-500 -13,-1 -25,-1 -38,-1 -240,-1 -444,187 -463,427 -60,759 245,1534 837,2128 363,364 812,632 1300,774l109 32 -37 107c-14,41 -22,75 -25,108 -72,751 219,1515 798,2097 546,549 1268,852 2033,853z"/>
</svg>