<svg  version="1.1" xmlns="http://www.w3.org/2000/svg" xmlns:xlink="http://www.w3.org/1999/xlink" viewBox="0 0 2086 2947">
  <path fill="var(--logo-fil0)" d="M1580 1490l75 63 -32 36 -48 -57 5 -42zm-566 -889c-35,-27 -56,2 -56,2 0,0 37,-68 -10,-92 -46,-25 -69,21 -69,21 0,0 -4,-92 -79,-86 -75,6 -48,92 -48,92 0,0 -42,-34 -77,-2 -27,25 -15,60 -15,60 0,0 -130,-23 -63,90 0,0 -27,58 31,71l-3 65 331 1c7,85 14,221 -15,339 -4,16 -12,74 -20,149 10,4 36,2 46,3 4,-29 0,-50 5,-76 7,-33 20,-40 35,-51 16,-11 -3,-39 -1,-198 2,-130 -6,-229 -9,-260l0 -35 11 -13c19,-16 42,-53 7,-79zm-349 997c-1,8 3,16 8,16l279 0c4,0 8,-6 8,-14l-4 -54 -287 0 -4 52zm247 -192c-1,80 -1,135 -1,135l47 0c0,0 -12,-59 -13,-125 -12,-2 -23,-5 -33,-10zm572 -126l-31 53c0,0 44,7 64,57 17,43 28,141 31,169 24,-116 -14,-240 -64,-280zm-46 31c40,-106 113,-309 116,-386 3,-106 -43,-175 -96,-255l-6 -9c-23,-34 -39,-62 -53,-85 -1,-2 -3,-5 -4,-7 -2,-3 -3,-6 -5,-8l-3 -5c4,74 89,154 103,318 11,136 -69,478 -69,478 0,0 7,-15 18,-39z"/>
  <path fill="var(--logo-fil0)" d="M1135 2861l0 -362c0,-28 8,-49 23,-63 15,-14 37,-21 63,-21l90 0 0 117 -54 0 0 -68 -31 0c-24,0 -37,14 -37,38l0 78 86 0 0 49 -86 0 0 182 67 0 0 -89 54 0 0 138 -175 0zm728 -279l-75 0 -2 -31c-1,-29 4,-51 17,-64 13,-14 31,-21 55,-21l6 0 0 117zm-1 -167l0 0 -6 0c-38,0 -69,13 -92,34 -23,21 -34,55 -32,101l10 311 54 0 -5 -230 72 0 0 230 54 0 0 -446 -55 0zm-852 0l0 0 -6 0c-38,0 -69,12 -92,34 -23,21 -34,55 -32,101l10 311 54 0 -2 -102 -6 -185 -2 -23c-1,-29 4,-51 17,-64 13,-14 31,-21 55,-21l6 0 0 117 0 49 0 230 54 0 0 -446 -55 0zm-828 397l-70 0 -8 -261c-2,-29 4,-51 18,-66 12,-13 30,-20 54,-20l6 0 0 347zm54 -397l-61 0c-38,0 -69,13 -92,34 -23,21 -34,55 -32,101l8 262 -46 0 9 136 53 0 -6 -86 149 0 -6 86 55 0 7 -136 -39 0 0 -397zm205 167l-75 0 -2 -31c-1,-29 4,-51 17,-64 13,-14 31,-21 55,-21l6 0 0 117zm-7 -167c-38,0 -69,13 -92,34 -23,21 -34,55 -32,101l10 311 54 0 -5 -230 72 0 0 230 54 0 0 -446 -61 0zm211 -41c-21,0 -38,-6 -49,-18 -11,-12 -17,-29 -17,-49l0 -3 49 0 0 1c0,34 17,39 28,39l15 0c10,0 28,-5 28,-39l0 -1 49 0 0 3c0,20 -6,37 -17,49 -11,12 -28,18 -49,18l-37 0zm56 487l0 -259 -77 66 0 193 -54 0 0 -446 54 0 0 188 77 -66 0 -122 53 0 0 446 -53 0zm1300 -174l-6 -272 66 0 -6 272 -54 0zm-5 85l64 0 0 89 -64 0 0 -89zm-360 175l6 -86 -268 0 -1 -446 54 0 0 397 63 0 -1 -397 54 0 0 397 63 0 -1 -397 54 0 0 397 39 0 -7 136 -55 0z"/>
  <path fill="var(--logo-fil1)" d="M202 640l14 -25c6,-10 11,-25 -9,-36 -15,-9 -26,-4 -35,12l-14 25 44 24zm1585 418c0,-412 -335,-747 -747,-747 -412,0 -747,335 -747,747 0,412 335,747 747,747 85,0 167,-14 243,-41 -38,1 -74,17 -74,17 0,0 1,-8 2,-21 79,-19 154,-52 221,-95 8,15 13,30 26,49 110,-51 194,-160 194,-160l-29 -29c103,-128 164,-290 164,-466zm-1716 -117c0,15 -12,28 -28,28 -15,0 -28,-12 -28,-28 0,-15 12,-28 28,-28 15,0 28,12 28,28zm1979 0c0,15 -12,28 -28,28 -15,0 -28,-12 -28,-28 0,-15 12,-28 28,-28 15,0 28,12 28,28zm-105 284l4 -20 58 50 78 -23 -5 22 -59 15 47 39 -5 22 -61 -53 -74 22 5 -22 56 -15 -44 -37zm46 165l-65 -5 52 39 12 -33zm31 65l-7 18 -115 -88 7 -18 145 9 -7 18 -37 -2 -15 41 30 22zm-54 113l-9 16 -122 -66 36 -66 14 7 -27 49 108 59zm-113 34l13 9 -35 47 39 29 39 -54 13 9 -51 69 -112 -83 49 -67 13 9 -38 52 35 26 35 -47zm-127 164l17 -17c14,-14 11,-26 -1,-38 -12,-12 -23,-12 -36,1l-17 17 37 37zm-29 -67c11,-11 32,-27 58,-2 9,9 29,32 1,61l-18 18 39 39 -13 13 -98 -98 32 -32zm-39 117l9 13 -47 35 29 39 53 -40 9 13 -68 51 -83 -111 67 -50 9 13 -52 39 26 35 47 -35zm-148 171l24 -13c8,-4 22,-14 11,-34 -11,-21 -26,-15 -35,-11l-24 13 24 44zm-31 -58l27 -14c11,-6 38,-18 56,17 9,16 12,39 -18,55l-44 23 -65 -123 73 -39 7 14 -57 30 20 37zm-280 33l20 -3 -27 72 49 65 -22 3 -35 -50 -20 58 -22 3 29 -76 -47 -62 22 -3 34 47 19 -55zm-141 14l19 0 -1 139 -19 0 1 -106 -57 105 -18 0 1 -139 19 0 -1 105 57 -105zm-143 -8l21 4 -63 54 44 83 -22 -4 -37 -75 -11 67 -18 -3 23 -137 18 3 -10 58 56 -50zm-146 65c-8,18 -27,44 -63,32 -39,-13 -41,-51 -29,-85 5,-16 26,-72 76,-55 19,6 41,22 31,60l-18 -6c3,-13 3,-32 -18,-39 -32,-11 -48,34 -52,45 -13,37 -1,59 16,65 17,6 33,-6 40,-23l18 6zm-201 -110l21 11c17,9 28,2 36,-13 8,-15 4,-26 -12,-34l-21 -11 -24 46zm55 -48c13,7 36,22 19,55 -6,12 -22,38 -58,19l-22 -12 -26 49 -17 -9 64 -123 40 21zm-208 20c12,9 34,15 63,-25 15,-20 29,-51 6,-68 -23,-17 -49,6 -63,25 -13,18 -30,50 -6,68zm79 -106c8,6 43,35 0,92 -43,58 -82,31 -88,26 -7,-5 -43,-34 0,-92 24,-32 57,-50 88,-26zm-177 -117l0 0 -5 6 -74 69 -13 -14 102 -95 18 19 -58 100 104 -51 18 19 -102 95 -13 -14 74 -69 6 -5 -1 0 -102 50 -11 -11 57 -98zm-203 -223l51 -40 -64 7 13 33zm-67 -27l-7 -18 145 -13 7 18 -113 91 -7 -18 29 -23 -16 -41 -37 4zm-43 -151l-4 -18 135 -32 4 18 -56 13 12 51 56 -13 4 18 -135 32 -4 -18 64 -15 -12 -51 -64 15zm1868 -658c8,14 26,29 71,3 22,-12 49,-36 34,-63 -15,-26 -49,-15 -71,-3 -20,11 -50,35 -34,62zm119 -67c5,9 27,52 -38,89 -65,37 -91,-6 -95,-13 -5,-8 -27,-51 38,-88 36,-20 75,-23 95,13zm-174 -133l18 21c11,13 21,13 32,4 8,-6 15,-17 3,-32l-18 -22 -35 29zm-51 43l18 22c8,9 19,20 37,5 14,-11 14,-23 2,-37l-18 -22 -39 32zm119 -57c17,21 14,40 -3,54 -11,9 -26,11 -38,2l-1 1c6,10 10,28 -10,44 -20,16 -40,15 -60,-10l-32 -38 111 -92 33 40zm-114 -120l15 13 -93 110 -15 -13 71 -84 -117 46 -15 -12 93 -110 15 13 -71 83 116 -45zm-276 -19l-17 -10 72 -125 83 48 -72 125 -17 -10 64 -111 -48 -28 -64 111zm-247 -176l-2 16 -61 -9 -8 49 69 11 -2 16 -89 -14 22 -143 87 13 -2 16 -67 -10 -7 45 61 9zm-212 52c16,0 38,-9 37,-61 0,-25 -8,-60 -38,-60 -30,0 -37,35 -37,61 0,23 6,60 38,60zm-1 -136c10,0 58,1 59,76 1,75 -49,77 -58,77 -9,0 -58,-1 -59,-76 0,-41 16,-77 57,-77zm-149 15l22 -4 -44 76 73 66 -23 4 -64 -60 12 69 -19 3 -25 -142 19 -3 11 60 38 -69zm-117 123c5,20 6,53 -32,66 -40,14 -67,-15 -79,-50 -6,-17 -25,-75 28,-94 20,-7 48,-8 64,29l-18 7c-6,-12 -18,-28 -40,-20 -34,12 -18,59 -14,71 14,39 37,49 55,43 18,-6 23,-26 18,-44l18 -6zm-236 83l-7 81 -19 11 8 -94 -79 -32 19 -11 68 29 -29 -51 17 -10 29 51 9 -73 19 -11 -12 84 86 40 -19 11 -74 -34 33 58 -17 10 -33 -58zm-157 179c11,-4 21,-18 -21,-67l-40 -47 59 -51 94 109 -15 13 -83 -97 -29 25 32 38c30,34 49,71 15,90l-11 -13zm-66 83c10,-12 17,-35 -23,-67 -20,-16 -51,-33 -70,-9 -19,24 3,51 23,67 18,15 50,34 70,9zm-106 -86c7,-8 38,-44 96,3 58,47 28,87 22,94 -6,7 -38,44 -96,-3 -32,-26 -48,-61 -22,-93zm-61 211l13 -24c8,-14 4,-24 -8,-31 -9,-5 -21,-8 -31,9l-14 25 39 22zm-38 -57c13,-24 32,-27 51,-17 12,7 20,20 16,35l1 1c7,-9 22,-20 45,-7 22,12 28,32 13,60l-24 44 -126 -70 25 -45z"/>
  <path fill="var(--logo-fil2)" d="M1405 1353l38 0c16,-42 41,-110 66,-181l-13 50c0,0 38,4 41,-5 3,-9 12,-38 56,-101 39,-56 82,-67 58,-100 -23,-33 -55,-64 -78,-84 0,-3 0,-5 0,-8 3,-116 -48,-188 -106,-275 -62,-93 -81,-146 -97,-150 -39,-8 -80,40 -86,44 0,0 -3,-15 -19,-17 -16,-2 -19,14 -23,42 -13,91 -143,272 -99,455l3 12c-13,44 -20,87 0,91 8,2 17,2 26,0l2 8c24,92 47,172 61,221 56,-9 139,-6 171,-4zm1 311c12,17 32,51 36,76 8,42 8,50 8,50 0,0 -42,39 -116,6 -45,-20 -112,10 -112,10 0,0 6,-90 40,-144l143 3z"/>
  <path fill="var(--logo-fil4)" d="M1214 1613c-17,-35 17,-35 17,-35 0,0 -39,-9 -43,-41 -4,-30 30,-29 34,-28 -4,0 -37,-5 -45,-41 -8,-36 39,-41 47,-41 -6,0 -43,1 -47,-39 -2,-18 28,-28 67,-33l-284 0c-3,19 -4,40 -4,69 0,52 12,132 18,178 2,13 -8,25 -21,25l-287 0c-10,0 -17,-9 -16,-19 4,-41 13,-121 13,-184 0,-25 -2,-47 -5,-69l-304 0c115,265 379,451 686,451 63,0 124,-8 182,-23 0,-2 1,-4 1,-7 -9,3 -14,5 -14,5 0,0 1,-8 2,-21 6,-1 11,-3 16,-4 8,-38 20,-82 31,-99l3 0c-2,-5 -4,-10 -6,-14 -26,-2 -30,-9 -41,-30z"/>
  <path fill="var(--logo-fil5)" d="M640 775c-4,0 -8,0 -11,-1 -18,263 9,383 30,482 12,56 23,104 23,167 0,34 -3,71 -5,105l269 1c-5,-36 -9,-74 -9,-105l0 -2c-77,-16 -109,-99 -112,-168 0,-6 3,-11 9,-13 5,-2 11,-1 15,4 47,54 87,53 102,50 3,-17 7,-38 10,-64 3,-19 16,-30 27,-38 10,-8 14,-11 14,-18 6,-100 7,-272 -7,-460l-279 0c-3,16 -9,27 -16,35 -16,18 -41,26 -61,26zm-38 388c-20,-8 -62,-25 -88,-43 -33,-24 -24,-65 -19,-268 1,-36 32,-34 32,-34l61 0c1,-19 2,-39 4,-60 -7,-6 -11,-12 -14,-18 -10,-20 -6,-43 -2,-55 -20,-36 -22,-65 -8,-86 16,-23 48,-27 71,-27 1,-16 6,-36 24,-53 21,-20 46,-21 66,-16 0,-16 3,-33 13,-49 8,-12 25,-28 57,-30 25,-2 46,5 63,20 15,13 24,31 29,47 4,-2 8,-4 13,-6 12,-4 31,-6 54,7 15,8 26,21 30,37 4,13 4,28 1,40 12,1 24,6 36,15 20,16 25,34 25,46 0,18 -8,35 -19,49l1 13c16,196 14,378 8,483 -1,24 -18,37 -29,46 -7,5 -12,9 -12,13 -5,35 -9,59 -13,81 -7,36 -11,59 -11,108 0,52 12,128 18,170 2,12 -2,24 -10,33 -8,9 -18,14 -30,14l-287 0c-10,0 -19,-4 -26,-12 -7,-8 -10,-18 -9,-29 4,-39 13,-113 13,-176 0,-58 -10,-105 -22,-159 -7,-31 -14,-63 -20,-101zm-16 -306l-54 0c-8,102 -8,214 5,232 15,11 39,22 58,30 -8,-67 -13,-150 -9,-262zm88 697c-2,18 -3,34 -5,47l284 0c1,-1 2,-2 2,-4 -2,-13 -4,-28 -6,-43 -33,-1 -174,0 -275,0zm242 -580c-12,-12 -34,-18 -54,-17 -11,0 -22,3 -31,9 -5,3 -18,13 -18,-7 1,-23 17,-50 45,-52 52,-3 66,60 58,67zm-120 -16c-16,-17 -39,-10 -31,5 7,16 52,16 31,-5zm-4 -102c-4,0 -7,-1 -10,-4 -6,-6 -6,-15 -1,-22 21,-23 51,-35 84,-35 33,0 65,13 86,35 6,6 5,16 -1,22 -6,6 -16,5 -22,-1 -15,-16 -39,-26 -64,-26 -24,0 -46,9 -62,26 -3,3 -7,5 -11,5zm146 537c1,-29 5,-49 9,-72 -20,2 -53,-2 -89,-32 8,37 28,90 80,104zm50 -717c1,-4 3,-8 6,-11 9,-8 19,-21 19,-33 0,-4 -1,-10 -10,-17 -15,-12 -24,-7 -29,-1 -6,8 -17,10 -26,4 -8,-5 -11,-16 -6,-25 0,0 27,-51 -2,-66 -26,-14 -39,4 -43,12 -4,8 -13,12 -21,10 -8,-2 -15,-9 -15,-18 -1,-11 -6,-42 -24,-58 -9,-8 -20,-11 -35,-10 -14,1 -23,6 -29,14 -11,16 -5,45 -3,54 3,8 -1,17 -8,22 -7,5 -16,4 -23,-1 -3,-2 -30,-23 -52,-3 -17,16 -10,39 -10,40 2,6 1,13 -4,18 -4,5 -11,7 -18,6 -19,-3 -50,-2 -57,9 -6,8 0,28 14,52 3,5 4,12 1,18 -2,5 -8,22 -2,32 3,6 10,10 20,12 10,2 30,0 41,-12 9,-10 10,-26 3,-46 -3,-10 2,-21 12,-24 10,-3 21,2 24,12 1,4 2,7 3,11l272 0z"/>
  <path fill="var(--logo-fil5)" d="M1468 1153c-6,-5 -14,-4 -19,1 -9,11 -24,17 -41,17 -18,0 -34,-7 -46,-20 -5,-6 -13,-6 -19,-1 -6,5 -6,13 -1,19 1,1 1,1 2,2 -2,1 -4,2 -5,4 -9,11 -23,17 -39,17 -17,0 -33,-7 -44,-20 -5,-6 -13,-7 -19,-2 -6,5 -7,13 -2,19 16,19 39,30 65,30 24,0 46,-10 60,-27 2,-2 2,-4 3,-6 14,8 29,13 46,13 24,0 47,-10 61,-26 5,-6 4,-14 -1,-19zm-143 -464c-36,0 -76,-13 -83,-47 0,-1 -1,-2 -1,-3 10,-25 17,-47 20,-66 1,-7 3,-19 5,-25 0,0 0,0 0,1 1,7 6,12 12,14 6,2 13,1 19,-3 1,-1 3,-2 5,-5 26,-26 47,-38 63,-36 5,5 16,23 26,41 0,1 1,2 1,3 -8,4 -14,13 -14,22 0,14 11,25 25,25 5,0 10,-2 14,-5 6,10 12,20 19,31 -12,34 -64,53 -111,53zm-670 649l-309 1c5,15 9,20 13,31l300 0c-1,-11 -3,-21 -5,-32zm554 0l-246 0c-2,10 -3,21 -4,32l256 0c6,0 11,-5 12,-12 8,-2 17,-3 27,-4 -14,-47 -36,-127 -60,-218 31,-10 59,-32 68,-57 7,-21 2,-63 -3,-94 10,5 21,8 32,8l1 0c17,0 34,-7 50,-21 17,13 40,21 63,21l1 0c23,0 45,-7 61,-20 13,9 32,18 54,18 0,0 1,0 1,0 8,0 17,-2 24,-4 -4,17 -9,35 -14,54 -1,1 -2,2 -3,3 -9,11 -25,19 -42,19 -16,0 -30,-7 -40,-18 -4,-5 -10,-6 -15,-4 -5,-1 -10,1 -13,5 -6,8 -31,23 -55,23 -15,0 -28,-6 -38,-18 -5,-6 -13,-7 -19,-2 -6,5 -7,13 -2,19 15,18 35,28 59,28l0 0c28,0 55,-14 69,-26 14,13 33,21 54,21 11,0 22,-2 32,-6 -30,97 -71,205 -91,259 -1,4 -3,7 -4,11l40 0 -1 -16c7,-18 15,-38 22,-57 52,40 90,169 63,288 -2,7 3,15 10,16 1,0 2,0 3,0 6,0 11,-4 13,-11 7,-25 11,-50 13,-74 15,14 37,35 50,55 3,4 6,13 9,11 6,-4 18,-20 14,-26 -22,-34 -64,-69 -71,-74 -1,-100 -40,-183 -93,-216 2,-5 3,-9 5,-14 25,-2 26,3 40,-4 28,-11 38,-93 123,-175 45,-51 -71,-101 -70,-131 4,-118 -46,-192 -103,-277l-6 -9c-27,-41 -46,-74 -60,-99 -22,-38 -32,-56 -49,-59 -35,-8 -69,17 -88,35 -5,-4 -11,-6 -19,-7 -35,-4 -41,32 -44,58 -4,26 -19,62 -36,104 -34,82 -79,190 -71,302 1,19 12,64 15,67 -10,35 -15,69 -6,87 4,8 10,13 18,14 4,1 8,1 12,1 20,78 40,147 54,196zm321 -504c-5,-5 -14,-5 -19,0 -24,24 -73,29 -102,0 -5,-5 -14,-5 -19,0 0,0 0,1 -1,1 -24,23 -75,28 -103,-1 -2,-2 -4,-3 -6,-3 -5,-3 -11,-2 -16,2 -25,25 -69,35 -96,8 14,-56 36,-108 55,-155 2,-4 3,-8 5,-11 18,26 53,42 98,43l2 0c48,0 103,-19 127,-54l5 7c53,80 99,149 96,255 0,8 -1,18 -3,28 -10,8 -20,12 -32,12 0,0 -1,0 -1,0 -21,0 -39,-12 -46,-19 -5,-5 -14,-5 -19,0 -1,1 -2,3 -3,5 -11,11 -29,17 -48,17 -21,0 -40,-8 -53,-21 -5,-5 -14,-5 -19,0 0,0 0,1 -1,1 -1,1 -3,2 -4,3 -12,12 -24,18 -36,18l0 0c-13,0 -26,-7 -40,-21 0,0 -1,-1 -1,-1 -3,-4 -9,-6 -14,-5 -7,2 -12,9 -10,16 8,34 18,95 12,115 -8,23 -56,51 -87,44 -11,-13 16,-106 45,-170 3,-7 0,-15 -7,-18 -7,-3 -15,0 -18,7 0,0 -7,16 -16,38 -3,-34 0,-68 6,-101 14,10 30,14 46,14 24,0 48,-9 67,-24 18,15 41,21 63,21 23,0 46,-7 62,-19 18,13 39,19 59,19 27,0 54,-10 71,-28 5,-5 5,-14 0,-19zm56 144c6,-7 57,27 61,52 -4,35 -74,92 -99,161 -11,27 -31,19 -40,19 28,-85 47,-125 78,-232zm-222 325l0 0c-25,0 -49,-11 -65,-30 -5,-6 -4,-14 2,-19 6,-5 14,-4 19,2 11,13 27,20 44,20 16,0 30,-6 39,-17 5,-6 13,-7 19,-2 6,5 7,13 2,19 -14,17 -36,27 -60,27z"/>
  <path fill="var(--logo-fil5)" d="M1391 1819c-18,0 -40,-4 -64,-15 -31,-14 -80,2 -97,10 -6,3 -12,2 -18,-2 -5,-4 -8,-10 -8,-16 0,-4 5,-79 34,-136 -17,-5 -31,-13 -40,-29 -7,-12 -6,-30 0,-44 -20,-9 -30,-26 -31,-43 0,-13 5,-27 15,-38 -16,-10 -23,-25 -23,-39 0,-14 6,-28 19,-39 -6,-4 -9,-9 -11,-13 -8,-14 -8,-32 0,-47 12,-22 40,-36 71,-36l231 0c10,0 17,8 17,17 0,10 -8,17 -17,17l-231 0c-23,0 -37,6 -42,14 -2,3 -3,11 0,16 4,6 11,17 33,16 10,0 22,3 22,12 0,10 -8,14 -17,14 -27,1 -41,9 -41,27 0,9 15,22 43,22 9,0 17,4 18,13 0,9 -7,12 -17,13 -25,1 -38,12 -36,29 1,10 16,21 37,20 10,0 17,4 17,13 0,9 -10,11 -16,14 -4,2 -14,7 -10,23 3,13 36,17 55,17l139 0c10,0 17,8 17,17 0,6 -3,12 -9,15 11,19 24,45 28,66 7,40 8,51 8,53 0,5 -2,10 -6,13 -1,1 -27,24 -71,24zm-115 -154c-20,32 -29,77 -33,106 26,-7 66,-14 98,0 46,20 76,9 89,2 -1,-7 -3,-19 -6,-38 -4,-21 -22,-53 -33,-68 0,0 -1,-1 -1,-2l-106 0c-3,0 -6,0 -8,0z"/>
  <path fill="var(--logo-fil6)" d="M724 1111c5,39 45,65 88,58 43,-7 74,-44 68,-83 -5,-39 -45,-65 -88,-58 -43,7 -74,44 -68,83z"/>
</svg>