<svg  version="1.1" xmlns="http://www.w3.org/2000/svg" xmlns:xlink="http://www.w3.org/1999/xlink" viewBox="0 0 10862 4860">
		<path fill="var(--logo-fil0)" d="M2229.31 1542.81c-75.71,0 -133.88,-21.57 -172.9,-64.13 -39.53,-43.04 -59.58,-101.24 -59.58,-173.02l0 -11.35 173.88 0 0 1.99c0,119.85 61.53,137.76 98.2,137.76l51.25 0c36.64,0 98.16,-17.91 98.16,-137.76l0 -1.99 173.89 0 0 11.35c0,71.75 -20.04,129.91 -59.58,173.02 -39.05,42.55 -97.19,64.13 -172.9,64.13l-130.42 0zm7936.69 734.21l-264.97 0 -8.23 -111.01c-4.91,-103.35 15.01,-179.89 59.24,-227.51 44.39,-47.78 109.18,-75.87 192.61,-75.87l21.36 0 0 414.39zm-2.65 -590.06l-0.06 0 -20.96 0c-133.55,0 -243.1,44.13 -325.58,119.98 -81.69,75.13 -119.34,195.29 -111.86,357.09l34.01 1097.36 190.08 0 -17.29 -810.4 254.32 0 0 810.4 190.17 0 0 -1574.43 -192.82 0zm-3006.31 0.74l-0.06 0 -20.99 0c-133.55,0 -243.1,43.37 -325.56,119.24 -81.69,75.13 -119.33,195.3 -111.89,357.09l34.01 1097.36 190.08 0 -7.66 -358.38 -22.36 -654.39 -6.13 -82.61c-4.94,-103.35 15.01,-179.89 59.24,-227.51 44.39,-47.77 109.18,-75.1 192.61,-75.1l21.32 0 0 413.62 0 173.94 0 810.44 190.18 0 0 -1573.7 -192.8 0zm3494.54 958.93l-22.27 -958.75 233.46 0 -22.34 958.75 -188.85 0zm-18.12 301.12l225.1 0 0 313.65 -225.1 0 0 -313.65zm-1269.26 618.69l20.96 -305.05 -944.66 0 -2.29 -1573.51 190.18 0 0 1399.57 222.04 0 -2.34 -1399.57 190.13 0 0 1399.57 222.08 0 -2.35 -1399.57 190.14 0 0 1399.57 136.26 0 -25.66 478.99 -194.5 0zm-1767.96 -305.05l0 -1278.1c0,-97.28 27.39,-171.53 81.45,-220.55 54.69,-49.66 129.8,-74.86 223.21,-74.86l316.3 0 0 413.8 -190.17 0 0 -239.83 -109.84 0c-84.32,0 -130.81,48.1 -130.81,135.44l0 275.09 302.73 0 0 173.97 -302.73 0 0 641.1 236.01 0 0 -314.38 190.17 0 0 488.32 -616.32 0zm-6999.22 -173.93l-246.63 0 -26.57 -921.22c-6.07,-103.45 14.89,-181.36 62.27,-231.63 42.61,-45.17 106.39,-71.96 189.59,-71.96l21.35 0 0 1224.81zm190.17 -1400.52l-213.83 0c-133.55,0 -243.1,44.14 -325.58,120.01 -81.66,75.13 -119.34,195.23 -111.89,357l26.66 923.51 -162.53 0 32.06 478.99 187.73 0 -20.96 -305.05 525.43 0 -20.96 305.05 194.47 0 25.68 -478.99 -136.27 0 0 -1400.52zm722.96 590.09l-264.93 0 -8.27 -111.01c-4.91,-103.35 15.04,-179.89 59.27,-227.51 44.39,-47.78 109.18,-75.87 192.58,-75.87l21.35 0 0 414.39zm-23.67 -590.06c-133.55,0 -243.1,44.13 -325.56,119.98 -81.69,75.13 -119.37,195.29 -111.89,357.09l34.02 1097.36 190.07 0 -17.29 -810.4 254.32 0 0 810.4 190.17 0 0 -1574.43 -213.83 0zm938.83 1574.42l0 -914.3 -273.23 231.85 0 682.46 -190.17 0 0 -1573.48 190.17 0 0 662.81 273.23 -231.8 0 -431.01 187.85 0 0 1573.48 -187.85 0zm566.33 -2217.86l42.8 -47.62c17.57,-19.55 37.3,-49.2 -2.08,-84.56 -29.95,-26.91 -55.09,-23.46 -83.31,7.93l-42.8 47.59 85.38 76.66zm3472.42 2440.52l24.13 -39.63 87.66 151.34 185.35 8.05 -26.6 43.77 -138.65 -11.01 73.3 118.51 -26.62 43.72 -91.85 -160.09 -175.96 -7.9 26.11 -42.98 131.2 9.33 -68.09 -113.11zm13.29 340.43l-136.63 -55.31 86.94 119.12 49.7 -63.82zm22.42 162.34l-27.31 35.14 -190.47 -270 27.33 -35.14 308.59 118.18 -27.31 35.11 -79.55 -30.93 -61.1 78.59 49.82 69.06zm-149.63 163.25l-29.74 30.51 -226.23 -220.59 118.94 -122.02 25.53 24.86 -89.2 91.52 200.69 195.72zm-226.47 -32.51l22.54 27.66 -103.44 84.38 69.31 85.11 117.17 -95.6 22.54 27.66 -150.21 122.51 -199.71 -245.11 146.88 -119.79 22.54 27.64 -113.84 92.89 62.74 77.05 103.47 -84.4zm-322.22 259.3l45.33 -28.55c37.64,-23.67 36.79,-51.98 16.35,-84.5 -20.71,-32.89 -45.6,-37.46 -79.61,-16.04l-45.34 28.55 63.27 100.54zm-31.27 -162.86c28.73,-18.12 84.4,-44.6 128.89,26.14 16.1,25.6 48.86,86.66 -30.08,136.32l-48.53 30.6 67.11 106.65 -36.03 22.72 -168.35 -267.65 87 -54.78zm-95.24 213.76l15.16 32.25 -120.92 56.74 46.58 99.3 136.97 -64.21 15.13 32.27 -175.53 82.34 -134.22 -286.11 171.62 -80.5 15.16 32.31 -133.06 62.38 42.19 89.93 120.92 -56.68zm-348.68 296.49l59.18 -19.1c19.59,-6.31 53.84,-21.69 38,-70.62 -16.53,-51.1 -52.68,-44.63 -73.15,-38l-59.18 19.07 35.14 108.66zm-46.12 -142.58l65.55 -21.18c27.76,-8.97 91.21,-24.22 118.58,60.37 12.78,39.53 11.83,92.46 -61.01,115.98l-106.52 34.41 -97.25 -300.6 179.83 -58.05 10.95 33.92 -139.29 44.97 29.17 90.17zm-327.77 -60.23l46.12 -5.4 -65.25 162.17 107.9 151 -50.85 5.98 -76.79 -116.01 -48.23 130.65 -50.85 5.95 69.49 -170.89 -102.19 -143.46 49.91 -5.83 73.58 109.12 47.16 -123.26zm-264.5 22.79l42.13 0.7 -5.21 315.85 -42.61 -0.7 3.99 -240.94 -132.3 238.76 -41.64 -0.7 5.21 -315.85 42.61 0.74 -3.97 239.16 131.78 -237.03zm-273.01 -12.53l47.83 6.74 -140.75 127.87 104.12 186.27 -50.67 -7.2 -89.23 -168.63 -21.59 152.92 -42.16 -5.98 44.2 -313.04 42.15 5.98 -18.82 133.27 124.92 -118.21zm-270.61 171.51c-16.53,41.76 -55.4,103.19 -138.37,80.23 -88.99,-24.59 -98.72,-111.13 -77.03,-189.47 10.5,-37.83 49.84,-165.62 165.55,-133.64 43.81,12.11 94.76,44.93 76.99,132.33l-40.54 -11.26c5.07,-29.01 3.81,-72.9 -45.97,-86.7 -74.68,-20.65 -105.34,82.86 -112.69,109.36 -23.98,86.61 4.03,134.19 44.6,145.39 39.16,10.86 73.6,-18.51 86.88,-57.5l40.57 11.26zm-417.54 -200.31l49.3 20.96c40.94,17.38 63.69,0.58 78.67,-34.75 15.13,-35.75 4.67,-58.84 -32.31,-74.55l-49.32 -20.96 -46.34 109.3zm115.74 -118.58c31.27,13.31 84.8,43.93 52.19,120.8 -11.78,27.83 -43.17,89.54 -129.04,53.05l-52.83 -22.42 -49.18 115.92 -39.16 -16.63 123.36 -290.96 94.66 40.24zm-413.78 115.63c28.83,17.14 79.68,25.28 137.33,-71.72 28.43,-47.71 54.24,-121.14 -2.56,-154.87 -56.41,-33.53 -108.78,24.64 -136.94,71.96 -25.84,43.47 -56.71,119.7 2.16,154.63zm153.02 -257.28c19.33,11.5 106.15,67.81 22.6,208.32 -83.98,141.27 -178.21,88.95 -193.86,79.65 -17.27,-10.32 -106.22,-66.81 -22.21,-208.05 45.91,-77.24 116.89,-125.4 193.46,-79.92zm-387.64 -185.66l-1.13 -0.91 -9.82 14.12 -146.39 176.44 -32.8 -27.19 201.7 -243.12 45.73 37.86 -102.29 241.72 219.12 -144.9 45.7 37.86 -201.73 243.13 -32.79 -27.15 146.36 -176.47 12.36 -12.6 -1.75 -0.89 -214.85 141.98 -27.27 -22.6 99.85 -237.28zm-328.27 -161.21l86.76 -119.03 -136.73 55.39 49.97 63.63zm-163.05 -17.6l-27.52 -35.02 308.19 -119.22 27.48 35.06 -189.31 270.55 -27.49 -35.02 49.24 -69.56 -61.5 -78.33 -79.1 31.54zm-159.16 -246.89l-21.78 -36.6 271.22 -161.93 21.82 36.58 -113.15 67.57 61.26 102.77 113.17 -67.57 21.81 36.58 -271.22 161.92 -21.84 -36.54 127.48 -76.14 -61.26 -102.77 -127.51 76.14zm3749.53 -2480.45c20.93,27.72 66.51,55.61 160.06,-14.71 46.04,-34.62 99.75,-94.87 58.54,-149.6 -40.91,-54.33 -114.09,-19.22 -159.76,15.1 -41.91,31.51 -101.49,92.46 -58.84,149.21zm248.19 -186.51c14.03,18.63 75.13,106.86 -60.4,208.68 -136.24,102.37 -206,15.11 -217.35,0 -12.54,-16.62 -75.57,-105.88 60.67,-208.28 74.47,-55.95 161.49,-74.19 217.08,-0.4zm-379.54 -202.24l43.78 43.25c26.11,25.84 50.24,24.04 73.28,0.71 15.76,-15.93 30.53,-41.49 -0.52,-72.21l-44.84 -44.33 -71.69 72.58zm-106.58 107.9l45.54 45.03c18.7,18.51 47.41,39.6 84.56,1.98 28.28,-28.65 26.03,-53.91 -3.96,-83.56l-45.58 -45.05 -80.57 81.6zm254.75 -156.86c42.73,42.22 38.83,86.45 4.3,121.38 -22.69,22.97 -56.49,31.05 -85.72,13.33l-1.64 1.64c14.67,20.47 28.67,59.98 -12.42,101.59 -40.79,41.3 -86.76,42.58 -137.58,-7.69l-79.1 -78.19 230.28 -233.06 81.88 80.99zm-227.17 -201.8l35.23 25.8 -193.64 264.42 -35.66 -26.08 147.74 -201.76 -255.14 123.12 -34.84 -25.53 193.64 -264.42 35.7 26.14 -146.64 200.17 253.62 -121.86zm-569.01 30.39l-39.14 -20.5 151.89 -290.54 189.1 98.97 -151.91 290.56 -39.14 -20.48 134.77 -257.76 -110.83 -58.02 -134.74 257.77zm-382.55 -335.62l-6.95 36.3 -136.11 -25.92 -21.36 111.71 154.2 29.4 -6.93 36.34 -197.64 -37.68 61.5 -321.86 193.22 36.83 -6.93 36.33 -149.85 -28.55 -19.31 101.13 136.15 25.98zm-421.01 104.24c34.72,1.68 85.26,-15.56 90.99,-132.48 2.84,-57.56 -9.12,-137.43 -77.57,-140.72 -67.99,-3.29 -87.76,75.47 -90.54,132.52 -2.57,52.38 6.16,137.27 77.12,140.69zm15.22 -310.15c23.3,1.1 130.26,10.52 121.93,179.89 -8.36,170.28 -120.1,168.14 -138.99,167.2 -20.81,-0.98 -129.77,-9.58 -121.44,-179.86 4.57,-93.1 46.24,-171.71 138.49,-167.23zm-268.1 10.26l49.94 -4.52 -111.99 162.63 149.2 163.39 -52.86 4.76 -130.02 -149.11 14.35 159.61 -44 3.96 -29.31 -326.68 43.99 -3.99 12.48 139.11 98.23 -149.14zm-223.4 243.85c5.55,46.31 0.46,121.47 -86.67,141.51 -93.41,21.51 -145.11,-52.59 -164.03,-134.74 -9.15,-39.72 -36.36,-175.71 85.11,-203.66 45.97,-10.58 108.75,-5.82 135.72,82.68l-42.59 9.79c-9.73,-29.04 -32.55,-68.45 -84.84,-56.43 -78.39,18.09 -55.21,127.57 -48.8,155.42 20.9,90.81 70.01,120.37 112.59,110.58 41.12,-9.49 58.05,-53.27 50.91,-95.33l42.59 -9.82zm-488.36 100.56l-39.45 179.91 -46.45 18.92 46.55 -208.59 -164.85 -97.25 45.51 -18.51 142.82 86.48 -50.4 -124.13 40.91 -16.68 50.43 124.16 41.54 -161.55 45.98 -18.73 -50.76 185.04 178.73 116.9 -45.98 18.73 -153.68 -101.31 57.13 140.57 -40.94 16.69 -57.11 -140.63zm-353.2 316.24c24.83,-4.06 53.36,-31.75 -23.15,-157.98l-73.09 -120.56 149.11 -90.29 169.98 280.5 -37.37 22.64 -150.78 -248.86 -73.95 44.75 58.78 97.01c53.41,88.12 84.26,177.33 0.86,206.48l-20.38 -33.68zm-130.93 120.96c26.75,-22.18 52.41,-69.04 -22.33,-159.15 -36.79,-44.35 -99.6,-95.11 -152.35,-51.4 -52.38,43.41 -13.78,114.85 22.72,158.81 33.5,40.38 97.28,97.03 151.95,51.74zm-198.31 -239.01c18,-14.89 103.26,-80.11 211.53,50.39 108.87,131.24 24.92,205.06 10.4,217.11 -16.05,13.3 -102.25,80.47 -211.13,-50.73 -59.52,-71.78 -81.91,-157.86 -10.8,-216.77zm-184.35 389.1l41.13 -45.79c24.55,-27.31 21.57,-51.31 -2.78,-73.22 -16.74,-15.04 -42.98,-28.55 -72.17,3.93l-42.13 46.86 75.96 68.21zm-56.07 -145.72c40.17,-44.63 84.5,-42.83 121.1,-9.98 24.04,21.57 33.71,54.97 17.42,85.02l1.74 1.53c19.73,-15.65 58.54,-31.48 102.1,7.63 43.2,38.8 46.7,84.65 -1.06,137.78l-74.34 82.68 -243.93 -219 76.97 -85.66z"/>
		<path fill="var(--logo-fil1)" d="M6238.22 2430.37c0,-899.86 -732.09,-1631.97 -1631.97,-1631.97 -899.87,0 -1631.97,732.1 -1631.97,1631.97 0,899.87 732.09,1631.97 1631.97,1631.97 325.76,0 629.26,-96.34 884.28,-261.44 17.39,34.17 30.17,68.34 59.34,110.43 247.85,-114.39 438.82,-362.06 438.82,-362.06l-105.1 -104.94c221.71,-278.69 354.63,-631 354.63,-1013.96z"/>
		<path fill="var(--logo-fil2)" d="M5430.32 3093.87l85.84 -0.8c35.6,-94.63 93.6,-248.37 148.7,-409.15l-30.45 114.07c0,0 86.3,10.13 93.16,-11.29 6.87,-21.41 27.82,-86.32 126.29,-226.99 87.76,-125.4 184.25,-151.31 131.69,-225.73 -52.48,-74.36 -124.05,-144.95 -176.59,-188.78 0.48,-6.3 0.84,-12.37 1.01,-18.14 7.84,-261.49 -108.14,-425.34 -238.27,-620.75 -140.39,-210.85 -183,-330.8 -219.46,-338.6 -87.79,-18.82 -181.24,89.38 -194.38,100.33 0,0 -6.65,-33.26 -43.89,-37.62 -37.22,-4.39 -43.38,31.15 -52.57,94.14 -29.89,204.99 -323.66,614.4 -223.33,1028.23l7.17 26.08c-29.33,100.04 -44.9,196.59 -0.88,205.93 17.93,3.8 37.59,3.68 57.66,0.5l5.03 18.31c53.78,207.46 105.11,388.66 136.9,498.2 126.81,-20.19 312.98,-14.06 386.35,-7.96zm14.09 694.88c29.23,40.17 75.84,123.3 86.58,182.3 18.55,101.98 18.55,120.52 18.55,120.52 0,0 -101.95,92.68 -278.08,13.88 -107.86,-48.26 -268.81,23.18 -268.81,23.18 0,0 13.64,-217.44 97.07,-347.23l344.7 7.35z"/>
		<path fill="var(--logo-fil3)" d="M4546.56 1395.97c-78.15,-60.28 -125.92,4.64 -125.92,4.64 0,0 82.51,-152.96 -21.72,-208.59 -104.21,-55.62 -156.31,46.37 -156.31,46.37 0,0 -8.7,-208.57 -178.04,-194.66 -169.33,13.88 -108.53,208.57 -108.53,208.57 0,0 -94.3,-77.31 -173.7,-4.64 -60.76,55.61 -34.71,134.41 -34.71,134.41 0,0 -292.7,-51.35 -142.89,202.61 0,0 -61.01,130.44 68.91,159.45l-7.51 146.27 746.46 3.36c16.05,192.24 30.78,498 -33.04,766.28 -8.66,36.4 -26.11,167.88 -46.12,336.17 21.7,8.97 81.27,4.45 102.96,7.62 9.75,-65.76 -0.86,-112.56 11.43,-171.59 15.35,-73.73 44.84,-89.32 80.08,-114.39 35.23,-25.11 -7.38,-89.17 -1.5,-446.57 4.85,-294.25 -13.6,-517.7 -20.29,-587.65l-1 -78.03 24.8 -30.32c43.41,-37.1 94.78,-119.06 16.62,-179.32zm1277.84 2008.24l167.78 152.53 -39.99 42.31c-13.39,14.22 -36.02,14 -49.2,-0.46l-90.03 -99.05 11.44 -95.33zm-215.36 -474.72l-70.61 120.09c0,0 99.14,15.25 144.9,129.65 38.89,97.29 63.94,318.08 70.59,382.11 53.17,-263.01 -30.59,-543.02 -144.87,-631.85zm-103.56 69c89.59,-239.65 256.08,-698.26 261.27,-872.72 7.14,-238.51 -96.88,-394.43 -217.35,-574.99l-13.67 -20.5c-50.91,-76.48 -89.04,-140.93 -118.66,-192.55 -3.26,-5.58 -6.43,-11.07 -9.45,-16.53 -3.73,-6.49 -7.36,-12.88 -10.77,-18.91 -2.2,-3.81 -4.39,-7.69 -6.55,-11.5 9.06,168.14 201.39,347.27 231.56,717.14 25.11,307.25 -156.74,1078.48 -156.74,1078.48 0,0 15.83,-32.95 40.36,-87.92zm-1747.34 647.81c-1.52,19.15 7.11,36.21 18.33,36.21l629.23 0c10.13,0 18.33,-14.12 18.33,-31.54l-9.18 -120.98 -647.38 0 -9.34 116.32zm558.82 -432.75c-1.74,179.61 -1.28,305.04 -1.28,305.04l105.49 -0.06c0,0 -27,-132.76 -29.83,-282.08 -26.36,-4.43 -51.95,-10.46 -74.37,-22.91z"/>
		<path fill="var(--logo-fil4)" d="M5092.47 3748.9c-58.94,-5.46 -68.42,-20.29 -92.43,-68.28 -39.11,-78.24 39.1,-78.24 39.1,-78.24 0,0 -88,-19.56 -97.76,-92.89 -9.12,-68.42 66.8,-64.52 77.02,-63.69 -9.91,-0.95 -83.25,-10.77 -101.49,-92.8 -18.09,-81.39 89.17,-91.67 105.37,-92.77 -13.97,0.76 -96.39,1.37 -105.37,-88.13 -4.02,-40.45 63.09,-62.48 151.43,-73.73l-641.74 0c-5.95,43.25 -9.57,89.93 -9.57,155.27 0,117.84 26.69,297.73 40.14,402.3 3.87,30.2 -18.15,57.08 -46.73,57.08l-647.26 0c-22.17,0 -39.5,-20.32 -37.22,-43.87 8.94,-93.29 28.59,-272.19 28.59,-415.33 0,-55.67 -3.99,-106.37 -10.5,-155.45l-628.83 0c251.42,566.35 825.16,962.28 1493.14,962.28 141.85,0 279.4,-17.99 410.54,-51.58 13.64,-71.54 38,-161.07 80.81,-227.66l7.17 0.16c-4.89,-11.2 -9.8,-22.18 -14.4,-32.67z"/>
		<path fill="var(--logo-fil5)" d="M4606.27 676.39c-967.17,0 -1753.99,786.82 -1753.99,1753.98 0,967.17 786.82,1753.99 1753.99,1753.99 122.5,0 242.07,-12.7 357.51,-36.79 3.18,6.51 8,12.23 14.15,16.51 12.41,8.66 28.4,10.19 42.18,4.12 40.05,-17.63 160.03,-56.22 233.67,-23.24 58.76,26.26 110.65,35.63 154.72,35.63 105.67,0 166.56,-53.81 170.1,-57.01 9.03,-8.21 14.16,-19.83 14.16,-32 0,-6.74 -1.86,-32.76 -19.22,-128.25 -10.26,-56.45 -47.29,-127.83 -76.68,-174.14 -6.82,5.9 -15.7,9.47 -25.42,9.47l-69.1 0c1.27,5.44 3.63,10.72 7.13,15.53 26.38,36.27 69.73,113.69 79,164.61 8.48,46.76 12.97,75.26 15.31,91.91 -31.45,17.63 -105.11,44.29 -214.67,-4.7 -76.96,-34.44 -172.6,-18.49 -235.86,-0.64 10.28,-70.96 33.49,-183.79 82.85,-260.55 1.33,-2.07 2.45,-4.21 3.39,-6.4 -30.71,-0.78 -63.08,-3.8 -92.46,-12.59 -40.12,74.64 -62.3,165.74 -74.3,234.9 -117.82,27.21 -240.46,41.62 -366.44,41.62 -899.87,0 -1631.97,-732.1 -1631.97,-1631.97 0,-899.86 732.09,-1631.97 1631.97,-1631.97 899.87,0 1631.97,732.1 1631.97,1631.97 0,382.96 -132.94,735.27 -354.63,1013.96l86.88 86.76c243.53,-301.21 389.77,-684.14 389.77,-1100.72 0,-967.16 -786.82,-1753.98 -1753.98,-1753.98zm642.61 918.91c-80.56,-0.77 -171.84,-29.29 -186.41,-107.14 -0.52,-2.72 -1.86,-5.01 -2.99,-7.35 21.78,-56.19 38.38,-106.46 44.76,-149.99 2.4,-16.65 6.19,-42.41 10.37,-55.67 0.36,0.39 0.67,0.82 0.88,1.37 2.99,14.95 13.64,27.21 28.01,32.28 14.3,5.06 30.33,2.22 42.07,-7.54 2.16,-1.8 6.04,-5.52 11.28,-10.73 58.94,-58.7 106.86,-85.91 142.03,-81.3 11.44,11.22 35.08,52.81 58,93.07 1.04,1.86 2.22,3.93 3.32,5.86 -19.03,9.09 -32.27,28.34 -32.27,50.78 0,31.18 25.28,56.44 56.43,56.44 12.02,0 23.12,-3.81 32.28,-10.22 13.18,21.93 27.76,45.57 43.71,70.62 -27.21,76.29 -145.3,120.56 -251.46,119.52zm461.93 326.21c-11.92,-11.92 -31.21,-11.92 -43.13,0 -53.23,53.23 -165.49,64.83 -230.32,0 -11.9,-11.92 -31.21,-11.92 -43.13,0 -0.67,0.67 -0.95,1.59 -1.56,2.32 -53.59,51.8 -168.64,62.45 -233.39,-2.32 -4.15,-4.15 -9.24,-6.31 -14.55,-7.57 -11.5,-6.04 -25.86,-4.6 -35.54,5.03 -56.44,56.45 -155.57,79.16 -217.39,17.55 31.15,-125.7 80.64,-244.66 124.91,-350.85 3.61,-8.63 7.08,-17.02 10.56,-25.44 39.53,59.52 118.64,95.08 221.01,96.06 1.34,0 2.65,0 3.96,0 109.21,0 231.6,-42.13 286.14,-122.08l11.04 16.57c120.46,180.53 224.49,336.47 217.35,574.99 -0.62,21.1 -3.64,46.44 -8.59,75.03 0.67,-3.84 1.31,-7.61 1.89,-11.35 -21.64,17.85 -45.68,27.1 -71.69,27.55 -0.7,0.03 -1.4,0.03 -2.08,0.03 -47.37,0 -87.92,-27.97 -102.93,-42.95 -11.92,-11.9 -31.23,-11.9 -43.13,0 -3.08,3.09 -5.31,6.65 -6.77,10.46 -25.84,23.92 -66.17,38.53 -107.8,37.59 -46.46,-0.49 -90.33,-18 -120.38,-48.05 -11.92,-11.9 -31.23,-11.9 -43.13,0 -0.55,0.52 -0.7,1.22 -1.19,1.77 -3.32,1.46 -6.53,3.42 -9.24,6.13 -26.75,26.75 -53.87,40.33 -80.62,40.33 -0.34,0 -0.65,0 -0.95,0 -29.01,-0.34 -59.64,-16.45 -91.03,-47.86 -1.04,-1.04 -2.13,-1.97 -3.26,-2.83l-0.01 -0.01c-7.01,-9.53 -19.26,-14.5 -31.56,-11.56 -16.39,3.84 -26.55,20.29 -22.7,36.66 18.12,77.12 41.21,215.58 25.99,258.81 -18.67,52.99 -125.5,114.45 -195.42,100.3 -25.11,-28.49 35.87,-238.97 101.55,-384.91 6.89,-15.35 0.06,-33.4 -15.31,-40.33 -15.35,-6.87 -33.4,-0.06 -40.33,15.31 -0.48,1.06 -15.95,36.02 -35.18,86.24 -6.11,-77.45 0.27,-154.17 14.35,-228.97 32.14,21.46 68.43,30.96 104.95,30.96 54.05,0 108.48,-20.93 150.55,-54.67 41.06,32.89 92.09,47.56 142.27,47.56 52.13,0 103.11,-15.99 141.09,-43.69 39.63,29.83 87.13,43.44 133.98,43.44 61.44,0 121.6,-23 160.73,-62.14 11.92,-11.93 11.92,-31.21 0,-43.14zm-613.28 342.74c23.66,12.4 47.69,18.79 71.86,19.08 0.58,0 1.19,0 1.77,0 39.26,0 77.02,-16.14 112.4,-47.71 39.17,29.8 89.2,46.98 141.46,47.52 0.92,0 1.8,0 2.65,0 52.5,0 101.52,-16.2 137.7,-45.09 30.39,21.35 73.36,39.99 120.9,39.99 1.06,0 2.1,0 3.14,-0.03 19.02,-0.32 37.48,-3.74 55.09,-10.12 -8.66,37.73 -19.46,78.91 -31.8,122.21 -2.53,1.69 -4.85,3.78 -6.87,6.27 -20.77,25.84 -56.79,41.89 -93.95,41.89 -36.27,0 -68.09,-14.77 -89.63,-41.55 -8.23,-10.28 -21.71,-13.54 -33.49,-9.52 -10.64,-1.89 -21.9,1.47 -29.17,10.46 -14.4,17.97 -70.1,51.43 -125.16,51.43 -34.96,0 -63.51,-13.54 -84.93,-40.17 -10.55,-13.14 -29.77,-15.25 -42.89,-4.67 -13.12,10.56 -15.22,29.75 -4.66,42.89 33.07,41.19 78.88,62.93 132.45,62.97l0.03 0c64.12,0 123.97,-30.6 156.28,-58.12 32.05,30.2 74.98,47.28 121.16,47.28 25.33,0 50,-4.94 72.45,-14.08 -63.98,206.07 -149.57,435.53 -197.71,563.58l-412.94 0c-31.22,-108.69 -75.62,-267.09 -121.77,-444.58 69.22,-23.22 133.68,-72.85 153.24,-128.4 16.42,-46.59 4.65,-141.83 -7.62,-211.54zm474.04 379.64c-12.75,-10.92 -32.06,-9.49 -43.02,3.36 -20.55,24.04 -54.75,38.38 -91.48,38.38 -40.27,0 -77.82,-16.87 -102.99,-46.27 -10.98,-12.85 -30.23,-14.28 -43.01,-3.36 -12.78,10.96 -14.31,30.2 -3.36,42.98 1.49,1.74 3.17,3.23 4.7,4.91 -4.61,1.83 -8.97,4.39 -12.36,8.48 -19.73,23.82 -52.5,38.04 -87.67,38.04 -38.58,0 -74.58,-16.75 -98.8,-45.94 -10.74,-12.96 -29.99,-14.76 -42.95,-4.03 -12.97,10.74 -14.8,29.99 -4.03,42.96 35.84,43.22 88.99,68.02 145.78,68.02 53.91,0 102.96,-21.89 134.62,-60.12 3.42,-4.12 5.13,-8.91 6.07,-13.82 30.66,18.79 66.51,29.17 104,29.17 55.12,0 105.37,-21.78 137.82,-59.73 10.98,-12.81 9.46,-32.05 -3.32,-43.01zm-234.96 335.62l0 0c-56.79,0 -109.94,-24.77 -145.75,-68 -10.77,-12.99 -8.98,-32.21 3.99,-42.98 13.02,-10.77 32.21,-8.97 42.95,4.02 24.22,29.19 60.22,45.94 98.8,45.94 35.14,0 67.94,-14.22 87.67,-38.04 10.77,-12.96 29.93,-14.8 42.95,-3.99 12.97,10.74 14.77,29.95 3.99,42.95 -31.66,38.19 -80.71,60.1 -134.62,60.1zm241.36 69.26l-17.35 0c13.71,-36.53 29.36,-77.59 46.12,-121.65 118.03,88.69 204.91,382.13 143.82,651.92 -3.72,16.44 6.59,32.79 23.04,36.48 2.26,0.52 4.51,0.76 6.74,0.76 13.94,0 25.81,-9.79 29.75,-23.76 15.92,-56.41 25.44,-112.2 30.07,-166.59 33.71,30.63 82.49,78.39 112.45,123.26 5.85,8.82 14.36,21.51 24.22,21.51 5.79,0 12.9,-9.58 18.09,-13.03 14.03,-9.36 17.81,-28.31 8.45,-42.31 -3.05,-4.57 -6.25,-9.15 -9.59,-13.72 -7.66,9.89 -15.42,19.71 -23.28,29.43l-86.88 -86.76c9.32,-11.72 18.47,-23.57 27.47,-35.55 -32.14,-31.28 -59.92,-54.56 -67.6,-60.91 -1.13,-225.89 -91.64,-415.05 -211.01,-487.68l-0.27 -0.16 11.48 -30.41c12.08,1.1 22.85,1.59 32.45,1.59 69.19,0 77.45,-25.72 80.5,-35.17 6.49,-20.2 26.23,-81.66 122.23,-218.85 29.63,-42.31 61.01,-73.42 86.27,-98.44 48.42,-47.95 94.14,-93.29 45.36,-162.35 -53.71,-76.1 -119.83,-139.82 -158.04,-173.92 0.35,-4.86 0.62,-9.6 0.76,-14.12 7.93,-266.12 -103.17,-432.71 -231.86,-625.59l-13.64 -20.44c-61.56,-92.43 -104.42,-167.78 -135.72,-222.81 -49.09,-86.3 -71.48,-125.68 -110.67,-134.1 -79.37,-17.08 -155.06,38.81 -198.59,78.07 -11.44,-7.93 -25.84,-13.91 -43.69,-16.01 -79.86,-9.52 -91.79,71.65 -100.39,130.83 -8.51,58.36 -42.46,139.81 -81.78,234.1 -77.14,185.1 -178.75,428.87 -160.54,683 3.04,42.31 27.7,145.33 34.95,151.1 -21.77,79.16 -34.01,156.79 -14.24,195.78 8.81,17.33 23,28.52 41,32.37 9,1.89 18.43,2.78 28.07,3.14 45.25,174.45 89,331.13 120.64,441.58 -40.39,13 -73.11,37.33 -91.42,69.69 -19.53,34.41 -19.83,73.85 -0.82,105.55 5.12,8.54 13.2,19.07 25.71,29.04 -29.06,24.99 -43.86,57.44 -43.43,88.49 0.42,30.84 15.65,64.61 52.29,87.98 -23.89,24.68 -35.7,55.64 -34.84,85.33 1.12,38.4 23.24,76.48 69.13,97.25 -15.37,33.38 -16.08,73.24 -1.04,100.33 18.51,33.43 49.44,52.27 84.69,62.8l1.38 0.41 1.38 0.4 1.04 0.3 0.35 0.1 1.39 0.38 1.39 0.37 4.21 1.08 1.42 0.35c2.35,0.57 4.72,1.09 7.1,1.6l1.13 0.24 0.29 0.05 1.44 0.29 1.44 0.29 0.29 0.06 1.14 0.22 1.44 0.27 2.88 0.52 1.45 0.25 0.03 0.01 1.41 0.23 1.45 0.23 2.91 0.45 1.23 0.19 0.23 0.03 1.45 0.21 1.46 0.21 1.46 0.2 1.46 0.19 0.97 0.13 0.49 0.06 1.46 0.17 1.46 0.18 0.1 0.02 1.37 0.15 1.46 0.16 2.93 0.31 1.31 0.14 0.16 0.01 1.47 0.14 1.46 0.14 0.44 0.04 1.03 0.09 1.47 0.12 1.46 0.12 1.47 0.12 1.47 0.11 0.17 0.02 1.29 0.09 1.47 0.1 0.77 0.05 0.69 0.04 1.46 0.09 1.37 0.1 0.09 0 1.46 0.08 1.46 0.09 0.51 0.03 0.95 0.04 1.46 0.08 1.1 0.05 0.35 0.01 1.45 0.07 1.45 0.06 0.24 0.01 1.21 0.04 1.45 0.05 0.83 0.03 0.61 0.02 1.44 0.04 1.43 0.04 0.02 0 1.44 0.03c6.45,0.16 12.82,0.23 19.08,0.23l243.76 0 69.1 0 0.46 0 0.45 -0.01 0.1 0 0.35 -0.02 0.46 -0.02 0.18 -0.01 0.27 -0.01 0.44 -0.03 0.29 -0.02 0.16 -0.02 0.45 -0.03 0.37 -0.03 0.07 -0.01 0.44 -0.05 0.44 -0.05 0.03 0 0.42 -0.06 0.44 -0.06 0.11 -0.02 0.32 -0.05 0.44 -0.07 0.2 -0.03 0.23 -0.04 0.43 -0.09 0.29 -0.05 0.14 -0.03 0.43 -0.09 0.37 -0.09 0.05 -0.02 0.42 -0.1 0.42 -0.11 0.04 -0.01 0.38 -0.1 0.42 -0.12 0.13 -0.03 0.29 -0.08 0.42 -0.13 0.22 -0.06 0.2 -0.07 0.42 -0.13 0.29 -0.1 0.11 -0.04 0.41 -0.14 0.38 -0.14 0.03 -0.01 0.41 -0.16 0.4 -0.16 0.06 -0.02 0.34 -0.14 0.4 -0.16 0.14 -0.06 0.26 -0.1 0.39 -0.17 0.39 -0.18 0.39 -0.18 0.3 -0.14 0.08 -0.04 0.39 -0.19 0.37 -0.18 0.01 -0.01 0.37 -0.2 0.38 -0.2 0.07 -0.03 0.3 -0.16 0.37 -0.22 0.15 -0.08 0.22 -0.13 0.36 -0.22 0.22 -0.13 0.14 -0.1 0.36 -0.22 0.29 -0.18 0.06 -0.04 0.35 -0.23 0.35 -0.23 0.01 0 0.34 -0.24 0.35 -0.24 0.09 -0.05 0.26 -0.19 0.35 -0.25 0.16 -0.11 0.18 -0.14 0.34 -0.26 0.22 -0.17 0.1 -0.09 0.33 -0.27 0.66 -0.54 0.32 -0.28c8.25,-7.13 13.47,-17.68 13.47,-29.45 0,-21.48 -17.42,-38.89 -38.89,-38.89l-312.86 0c-42.47,0 -116.11,-9.73 -123.7,-38.59 -9.15,-34.87 12.05,-46.39 22.02,-51.4 14.67,-7.35 36.82,-10.49 36.3,-31.91 -0.52,-21.2 -16.11,-30.47 -38.13,-30.47 -47.34,1.12 -80.75,-22.02 -83.03,-45.27 -3.73,-37.77 24.19,-63.09 81.21,-64.85 21.23,-0.67 37.98,-7.05 37.64,-28.28 -0.34,-21.26 -18.21,-30.44 -39.47,-30.44 -63.54,0 -97.46,-28.37 -96.8,-48.57 1.35,-41.36 31.39,-59.79 93.1,-61.56 21.44,-0.61 39.11,-9.91 38.53,-31.35 -0.55,-21.44 -27.27,-26.75 -49.54,-27.37 -50.77,1.37 -67.51,-22.94 -75.45,-36.15 -5.79,-9.67 -3.78,-28.34 0.22,-35.42 10.68,-18.85 43.13,-32.61 95.14,-32.61l521.36 0c21.48,0 38.89,-17.42 38.89,-38.92 0,-21.48 -17.42,-38.89 -38.89,-38.89zm88.17 -279.05c72.36,-194.22 147.91,-409.74 175.89,-553.78 35.28,33.85 80.39,81.46 118.6,135.64 16.62,23.52 15.46,30.41 -38.47,83.83 -26.94,26.75 -60.52,60 -93.25,106.8 -90.09,128.73 -117.38,196.79 -127.36,226.01 -7.64,1.45 -20.84,1.96 -35.4,1.5zm-1292.36 479.8c-174.69,-36.78 -245.15,-223.09 -251.83,-379.21 -0.54,-13 7.17,-24.9 19.25,-29.69 12.08,-4.79 25.84,-1.4 34.35,8.45 106.13,122.98 196.51,119.9 231.17,112.59 -2.11,11.46 -4.19,22.4 -6.19,33.01l-5.61 29.98c-46.28,3.85 -118.83,-5.4 -200.67,-71.97 17.95,84.23 63.85,203.08 180.92,234.45 -0.86,19.01 -1.34,39.6 -1.39,62.4zm-328.99 -1274.32c-8.42,0 -16.9,-3.08 -23.52,-9.3 -13.91,-13 -14.61,-34.8 -1.62,-48.66 48.29,-51.55 115.55,-79.95 189.38,-79.95 74.55,0 147.03,29.86 193.92,79.95 12.99,13.85 12.29,35.66 -1.59,48.66 -13.84,13.02 -35.63,12.32 -48.68,-1.59 -34.08,-36.39 -87.79,-58.14 -143.65,-58.14 -54.58,0 -104,20.66 -139.11,58.14 -6.77,7.24 -15.95,10.9 -25.14,10.9zm281.34 265.1c-27.33,-26.05 -75.99,-40.97 -122.33,-39.02 -25.66,1.06 -50.58,7.32 -70.8,19.71 -11.32,6.95 -41.67,29.71 -40.17,-16.05 1.68,-51.98 38.77,-113.54 102.25,-117.01 116.99,-6.38 149.39,135.38 131.06,152.37zm-624.18 -449.88c-8.64,0 -16.98,-0.58 -24.87,-1.68 -39.78,593.45 19.97,865.67 68.84,1087.96 27.82,126.62 51.86,235.95 51.86,377.13 0,143.65 -19.62,309.36 -28.47,401.97l641.13 0c2.68,-2.04 4.33,-4.43 3.84,-8.33 -15.13,-117.57 -40.51,-276.01 -40.51,-393.85 0,-117.38 11.23,-176.78 26.75,-258.96 8.88,-47.03 18.97,-100.36 29.35,-177.39 5.85,-43.65 37.16,-67.78 60.04,-85.38 22.72,-17.54 31.42,-25.53 32.27,-39.99 13.79,-226.75 16.84,-615.32 -14.67,-1037.99l-629.61 0c-5.84,35.09 -21.38,60.61 -37.24,78.32 -37.28,41.58 -92.25,58.2 -138.71,58.2zm-109.07 -37.22c-15.64,-13.05 -25.54,-27.43 -31.78,-39.99 -22.81,-45.91 -12.96,-96.4 -3.93,-124.86 -44.05,-81.72 -50.08,-146.7 -17.85,-193.22 36.15,-52.17 108.76,-61.35 159.7,-60.64 1.25,-35.66 12.82,-80.94 54.15,-118.76 48.54,-44.41 103.11,-48.38 148.87,-37.06 -0.06,-35.12 6.55,-75.29 29.62,-109.52 18.82,-27.97 56.59,-62.56 129.38,-68.55 56.28,-4.61 104.2,10.19 142.49,44.05 33.98,30.02 53.96,70.34 65.71,106.34 8.6,-4.94 18.06,-9.24 28.46,-12.5 26.69,-8.36 69.43,-12.48 121.62,15.37 34.1,18.21 57.84,46.79 68.67,82.67 9.12,30.26 8.18,62.17 3.05,90.85 27.49,2.01 54.91,13.51 81.94,34.31 46.09,35.57 56.61,76.67 57.31,104.91 1.03,41.19 -18,80.13 -42.03,110.19l2.42 30.43c35.08,442.45 32.21,853.11 17.81,1089.92 -3.32,55.06 -40.91,84.04 -65.8,103.19 -16.11,12.45 -26.05,20.48 -27.13,28.49 -10.67,79.29 -20.99,133.8 -30.07,181.88 -3.33,17.63 -6.41,33.96 -9.19,49.85l506.88 0c-38.74,13.26 -70.08,37.1 -87.84,68.49l-1.94 3.55 -427.49 0c-3.61,34.05 -5.65,71.85 -5.65,121.02 0,117.23 27.82,289.83 39.78,382.83 3.54,27.37 -4.76,54.82 -22.72,75.26 -17.09,19.44 -41.46,30.57 -66.87,30.57l-647.26 0c-22.27,0 -43.77,-9.61 -58.93,-26.32 -15.87,-17.45 -23.64,-41.09 -21.32,-64.91 8.51,-89.14 28.37,-255.45 28.37,-397.21 0,-42.73 -2.43,-82.64 -6.62,-121.22l-571.39 0c-11.35,-23.71 -22.14,-47.73 -32.36,-72.05l593.84 0c-8.93,-54.43 -20.71,-108.01 -33.3,-165.28 -50.9,-231.48 -113.25,-515.87 -68.6,-1142.07zm894.54 -185.79c1.73,-9.43 6.59,-18.33 14.43,-25.03 20.68,-17.63 42.62,-48.19 42.01,-73.6 -0.24,-8.91 -2.92,-22.58 -23.7,-38.59 -34.62,-26.69 -54.55,-16.47 -65.22,-3.29 -14.03,17.39 -39.33,21.63 -57.94,9.28 -18.57,-12.36 -25.04,-36.46 -14.42,-56.1 0.58,-1.06 60.55,-115.47 -3.99,-149.9 -57.94,-30.9 -87.59,9.45 -97.68,28.22 -9.18,17.2 -28.79,26.26 -47.84,21.93 -19.01,-4.36 -32.85,-20.68 -33.65,-40.14 -1.16,-24.32 -13.02,-95.48 -53.39,-130.93 -20.22,-17.75 -45.57,-24.98 -77.94,-22.45 -31.39,2.59 -52.56,12.63 -64.77,30.69 -24.58,36.52 -12.26,101.89 -6,121.93 5.67,18.21 -1.25,38.04 -17.12,48.71 -15.8,10.68 -36.78,9.7 -51.58,-2.4 -6.56,-5.25 -67.54,-51.47 -117.11,-6.19 -38.74,35.47 -23.4,87.15 -22.72,89.34 4.42,14.41 1.12,30.26 -8.82,41.55 -9.97,11.32 -25.08,16.84 -39.84,14.22 -43.5,-7.45 -112.84,-4.76 -129.74,19.74 -12.9,18.7 -1.1,62.93 31.57,118.33 7.26,12.3 7.96,27.36 1.93,40.3 -5.03,11.08 -17.03,48.56 -5.28,71.9 6.62,13.12 21.96,22.33 45.64,27.36 23.4,5.01 67.39,-0.3 92.01,-27.78 20.47,-22.82 23.09,-58 7.71,-104.45 -7.51,-22.67 4.83,-47.14 27.49,-54.64 22.63,-7.53 47.13,4.83 54.6,27.49 2.8,8.47 5.14,16.64 7.06,24.54l614.3 0zm-847.25 1108.28c-5.98,-2.14 -147.49,-52.8 -222.02,-105.85 -74.88,-53.27 -53.23,-146.91 -43.07,-604.5 1.83,-81.97 71.17,-75.92 71.17,-75.92l149.69 0 0 86.48 -136.32 0c-17.27,229.68 -17.33,483.96 10.58,524.84 65.43,45.64 197.64,92.98 198.98,93.48l-29 81.47zm414.49 -470.6c-36.21,-37.28 -87.64,-22.6 -70.71,12.42 16.92,35.05 118.47,36.76 70.71,-12.42zm376.21 1286.56c15.86,5.64 24.16,23.09 18.48,38.96 -4.42,12.5 -16.16,20.29 -28.7,20.29 -1.89,0 -3.79,-0.16 -5.67,-0.52 -32.46,-2.84 -412.83,-1.25 -662.82,0.52l-0.18 0c-16.78,0 -30.39,-13.52 -30.51,-30.3 -0.12,-16.86 13.42,-30.59 30.29,-30.71l679.11 1.77z"/>
		<path fill="var(--logo-fil6)" d="M3892.14 2548.7c12.38,88.07 101.61,146.79 199.29,131.14 97.7,-15.62 166.86,-99.68 154.51,-187.76 -12.38,-88.07 -101.59,-146.76 -199.29,-131.14 -97.71,15.62 -166.86,99.69 -154.51,187.76z"/>
	</svg>